999
DXF generated by OpenJsCad
  0
SECTION
  2
HEADER
  0
ENDSEC
  0
SECTION
  2
TABLES
  0
TABLE
  2
LTYPE
  70
1
  0
LTYPE
  2
CONTINUOUS
  3
Solid Line
  72
65
  73
0
  40
0.0
  0
ENDTAB
  0
TABLE
  2
LAYER
  70
1
  0
LAYER
  2
OpenJsCad
  62
7
  6
continuous
  0
ENDTAB
  0
TABLE
  2
STYLE
  70
0
  0
ENDTAB
  0
TABLE
  2
VIEW
  70
0
  0
ENDTAB
  0
ENDSEC
  0
SECTION
  2
BLOCKS
  0
ENDSEC
  0
SECTION
  2
ENTITIES
  0
LWPOLYLINE
  8
OpenJsCad
  90
1633
  70
1
 10
42.16358646946919
 20
-9.41714897532354
 30
0.0
 10
42.45833653272098
 20
-8.445488234725751
 30
0.0
 10
42.55786144938259
 20
-7.43499479804769
 30
0.0
 10
42.48269459845946
 20
-7.378016581797749
 30
0.0
 10
42.107487971293494
 20
-7.107839629927987
 30
0.0
 10
41.74493775254627
 20
-6.860056378785599
 30
0.0
 10
41.39590551987582
 20
-6.6338749826341274
 30
0.0
 10
41.061221419233455
 20
-6.428475082658781
 30
0.0
 10
40.74168329011715
 20
-6.24300887652885
 30
0.0
 10
40.43805582711939
 20
-6.076602215074796
 30
0.0
 10
40.151069773989484
 20
-5.928355722347948
 30
0.0
 10
39.88142115358854
 20
-5.7973459395375375
 30
0.0
 10
39.629770533475984
 20
-5.682626491278696
 30
0.0
 10
39.396742327966116
 20
-5.5832292733194
 30
0.0
 10
39.18292413719018
 20
-5.498165660446016
 30
0.0
 10
38.988866127325565
 20
-5.426427732867133
 30
0.0
 10
38.81508043350567
 20
-5.366989532320696
 30
0.0
 10
38.662040506462894
 20
-5.318808244243846
 30
0.0
 10
38.45150874085781
 20
-5.258163874362205
 30
0.0
 10
38.28634483950004
 20
-5.200528645521205
 30
0.0
 10
38.1471863317237
 20
-5.138556324195759
 30
0.0
 10
38.03413187084997
 20
-5.073488645241143
 30
0.0
 10
37.94723472736058
 20
-5.006569481430417
 30
0.0
 10
37.886502927575236
 20
-4.939042898872077
 30
0.0
 10
37.85189918109013
 20
-4.87215195110199
 30
0.0
 10
37.84334097751058
 20
-4.807137123259651
 30
0.0
 10
37.9176095176077
 20
-4.204983708212346
 30
0.0
 10
38.00938490865476
 20
-3.273172525522145
 30
0.0
 10
38.05401772137644
 20
-2.6681002461002756
 30
0.0
 10
38.075095245172285
 20
-2.606004282632579
 30
0.0
 10
38.12208386691165
 20
-2.547149481709748
 30
0.0
 10
38.19482250493192
 20
-2.4927685898906167
 30
0.0
 10
38.293105223632836
 20
-2.444088039693259
 30
0.0
 10
38.41668145517897
 20
-2.4023264918127976
 30
0.0
 10
38.56525626570547
 20
-2.3686933846327647
 30
0.0
 10
38.7384906657924
 20
-2.3443874923377246
 30
0.0
 10
38.956808369449924
 20
-2.325981084168268
 30
0.0
 10
39.11630725560637
 20
-2.3085822136626084
 30
0.0
 10
39.29834952772246
 20
-2.2841900008798217
 30
0.0
 10
39.502674146107694
 20
-2.2516893384755114
 30
0.0
 10
39.72897896793097
 20
-2.209974058760953
 30
0.0
 10
39.9769210370718
 20
-2.1579482781258292
 30
0.0
 10
40.246116915184835
 20
-2.0945277324108895
 30
0.0
 10
40.53614305366991
 20
-2.018641102025855
 30
0.0
 10
40.8465362062382
 20
-1.929231325615486
 30
0.0
 10
41.17679388185734
 20
-1.825256901027075
 30
0.0
 10
41.526374837305575
 20
-1.7056931725407487
 30
0.0
 10
41.89469960957573
 20
-1.5695336029625615
 30
0.0
 10
42.281151087032725
 20
-1.4157910296382132
 30
0.0
 10
42.685075119242285
 20
-1.2434989031098262
 30
0.0
 10
43.10578116481823
 20
-1.0517125073280487
 30
0.0
 10
43.19061960433392
 20
-1.0104934366780594
 30
0.0
 10
43.29014452099555
 20
-5.329070518200751e-15
 30
0.0
 10
43.1906196043339
 20
1.0104934366780567
 30
0.0
 10
43.10578116481812
 20
1.0517125073280988
 30
0.0
 10
42.68507511924239
 20
1.2434989031097796
 30
0.0
 10
42.281151087032576
 20
1.415791029638278
 30
0.0
 10
41.894699609433864
 20
1.5695336030190052
 30
0.0
 10
41.52637483731058
 20
1.7056931725431246
 30
0.0
 10
41.17679388186872
 20
1.8252569010218618
 30
0.0
 10
40.84653620626564
 20
1.9292313256078681
 30
0.0
 10
40.53614305367097
 20
2.018641102026514
 30
0.0
 10
40.246116915184935
 20
2.0945277324105644
 30
0.0
 10
39.97692103707186
 20
2.157948278125499
 30
0.0
 10
39.72897896792982
 20
2.209974058761247
 30
0.0
 10
39.502674146107005
 20
2.2516893384739967
 30
0.0
 10
39.29834953109531
 20
2.2841900022557025
 30
0.0
 10
39.11630726296743
 20
2.308582207476183
 30
0.0
 10
38.956808252203835
 20
2.325981096964725
 30
0.0
 10
38.73849066579239
 20
2.344387492337449
 30
0.0
 10
38.56525626713265
 20
2.368693397716046
 30
0.0
 10
38.41668145093927
 20
2.4023264601710923
 30
0.0
 10
38.29310522539029
 20
2.444088050742566
 30
0.0
 10
38.19482250492993
 20
2.492768589879392
 30
0.0
 10
38.122083866912114
 20
2.5471494817118034
 30
0.0
 10
38.07509524517229
 20
2.6060042826321834
 30
0.0
 10
38.05401772137519
 20
2.6681002460956846
 30
0.0
 10
38.00938490865479
 20
3.2731725255218334
 30
0.0
 10
37.91760951760773
 20
4.204983708212036
 30
0.0
 10
37.8433409775127
 20
4.807137123255394
 30
0.0
 10
37.85189918109021
 20
4.872151951101601
 30
0.0
 10
37.88650292757438
 20
4.939042898874003
 30
0.0
 10
37.94723472736472
 20
5.006569481419797
 30
0.0
 10
38.03413186697066
 20
5.073488655735278
 30
0.0
 10
38.14718634205492
 20
5.138556293989164
 30
0.0
 10
38.28634483554786
 20
5.200528658074666
 30
0.0
 10
38.451508740857875
 20
5.258163874361936
 30
0.0
 10
38.66204061895967
 20
5.318808279668001
 30
0.0
 10
38.81508042749296
 20
5.366989524817069
 30
0.0
 10
38.98886612374909
 20
5.4264277335585644
 30
0.0
 10
39.18292413719115
 20
5.498165660444665
 30
0.0
 10
39.39674232796719
 20
5.583229273319913
 30
0.0
 10
39.62977053347598
 20
5.682626491278358
 30
0.0
 10
39.88142115358851
 20
5.797345939537199
 30
0.0
 10
40.151069773988326
 20
5.928355722348389
 30
0.0
 10
40.43805582709396
 20
6.076602215061972
 30
0.0
 10
40.741683290107005
 20
6.243008876521517
 30
0.0
 10
41.06122141922809
 20
6.428475082660136
 30
0.0
 10
41.39590552000394
 20
6.633874982717164
 30
0.0
 10
41.744937752546406
 20
6.860056378785693
 30
0.0
 10
42.107487971293395
 20
7.107839629927921
 30
0.0
 10
42.48269459845956
 20
7.378016581797819
 30
0.0
 10
42.557861449382614
 20
7.434994798047691
 30
0.0
 10
42.45833653272099
 20
8.445488234725747
 30
0.0
 10
42.163586469469195
 20
9.41714897532352
 30
0.0
 10
42.0723367350134
 20
9.4410248746045
 30
0.0
 10
41.62229876842471
 20
9.54705047066326
 30
0.0
 10
41.19252349678692
 20
9.637230382777913
 30
0.0
 10
40.78350388781959
 20
9.712625892512705
 30
0.0
 10
40.39569295864916
 20
9.77431259568795
 30
0.0
 10
40.02950337695212
 20
9.823379079482168
 30
0.0
 10
39.685307106006505
 20
9.860925588372815
 30
0.0
 10
39.363435088730796
 20
9.88806268091707
 30
0.0
 10
39.064176974013165
 20
9.905909878226813
 30
0.0
 10
38.78778088452867
 20
9.915594305392668
 30
0.0
 10
38.53445322642408
 20
9.918249327131432
 30
0.0
 10
38.304358540943824
 20
9.915013178878384
 30
0.0
 10
38.097619401153395
 20
9.907027596580365
 30
0.0
 10
37.9143163409912
 20
9.89543642770757
 30
0.0
 10
37.75448770404234
 20
9.881384289042172
 30
0.0
 10
37.53677411923642
 20
9.856845362454228
 30
0.0
 10
37.362126524064244
 20
9.846887882057631
 30
0.0
 10
37.209845046318414
 20
9.850889185913772
 30
0.0
 10
37.080496021139695
 20
9.867739813596609
 30
0.0
 10
36.97460467353806
 20
9.89631096224087
 30
0.0
 10
36.892654502354496
 20
9.935456336171388
 30
0.0
 10
36.83508675174189
 20
9.984013233248843
 30
0.0
 10
36.80229990514634
 20
10.040804019281422
 30
0.0
 10
36.64048095357091
 20
10.62554257471651
 30
0.0
 10
36.36868165723944
 20
11.52154477622166
 30
0.0
 10
36.178365862673274
 20
12.097638908837917
 30
0.0
 10
36.17407585906845
 20
12.16307411768924
 30
0.0
 10
36.19496492772605
 20
12.235430630701197
 30
0.0
 10
36.2413560002793
 20
12.313507895275762
 30
0.0
 10
36.3135281524477
 20
12.396094027369127
 30
0.0
 10
36.41171625099427
 20
12.481967243148691
 30
0.0
 10
36.53611064458969
 20
12.56989730094236
 30
0.0
 10
36.68685689886671
 20
12.658646952182142
 30
0.0
 10
36.88151232940497
 20
12.759198824138677
 30
0.0
 10
37.02221182629888
 20
12.83631086570043
 30
0.0
 10
37.18106245984808
 20
12.92851089337203
 30
0.0
 10
37.35739632771936
 20
13.03672923644078
 30
0.0
 10
37.550510974287256
 20
13.161872235538146
 30
0.0
 10
37.75967017291005
 20
13.304821111476373
 30
0.0
 10
37.984104742818424
 20
13.466430858217933
 30
0.0
 10
38.223013399871704
 20
13.647529160972978
 30
0.0
 10
38.475563640437485
 20
13.84891534041238
 30
0.0
 10
38.74089265771708
 20
14.071359324065101
 30
0.0
 10
39.01810828940793
 20
14.315600645564754
 30
0.0
 10
39.30628999638967
 20
14.58234747313102
 30
0.0
 10
39.60448987106053
 20
14.872275667736803
 30
0.0
 10
39.91173367475901
 20
15.186027872109927
 30
0.0
 10
40.227021903251696
 20
15.524212631324566
 30
0.0
 10
40.289628545655184
 20
15.594760352277586
 30
0.0
 10
39.994878482403394
 20
16.566421092875352
 30
0.0
 10
39.516230352194476
 20
17.461908760045283
 30
0.0
 10
39.42207599892039
 20
17.467523950537593
 30
0.0
 10
38.96000081799055
 20
17.483714242676736
 30
0.0
 10
38.52089032959305
 20
17.488316376928456
 30
0.0
 10
38.10502098344889
 20
17.48246741586049
 30
0.0
 10
37.71262725375246
 20
17.467310667278145
 30
0.0
 10
37.343901506063375
 20
17.443994308932428
 30
0.0
 10
36.99899390944017
 20
17.413670010847376
 30
0.0
 10
36.67801238859942
 20
17.377491556269423
 30
0.0
 10
36.38102261917291
 20
17.336613462721065
 30
0.0
 10
36.10804806503118
 20
17.29218960423295
 30
0.0
 10
35.85907005779718
 20
17.24537183607826
 30
0.0
 10
35.63402791838393
 20
17.197308623221925
 30
0.0
 10
35.43281912301625
 20
17.149143676293523
 30
0.0
 10
35.25529950462425
 20
17.10201457544684
 30
0.0
 10
35.101283366375135
 20
17.057051424435876
 30
0.0
 10
34.89254039414364
 20
16.990510193074453
 30
0.0
 10
34.723191211597985
 20
16.946671987290085
 30
0.0
 10
34.57305516408905
 20
16.920887764684082
 30
0.0
 10
34.44290414977843
 20
16.912179869306375
 30
0.0
 10
34.33347352013931
 20
16.919543654238556
 30
0.0
 10
34.2454611149104
 20
16.94194917550001
 30
0.0
 10
34.17952653179668
 20
16.978342154410875
 30
0.0
 10
34.136290342530295
 20
17.027645324953937
 30
0.0
 10
33.86350386365974
 20
17.569578981637758
 30
0.0
 10
33.422125756575085
 20
18.395339339837836
 30
0.0
 10
33.123076436792644
 20
18.923235215587862
 30
0.0
 10
33.10610308843815
 20
18.986576167064634
 30
0.0
 10
33.11247472407539
 20
19.06161762509909
 30
0.0
 10
33.14274228648975
 20
19.14724510621106
 30
0.0
 10
33.19741591588737
 20
19.2423244573408
 30
0.0
 10
33.27696432433363
 20
19.34570319112189
 30
0.0
 10
33.38181421124685
 20
19.456211839814454
 30
0.0
 10
33.51234972047849
 20
19.572665326680987
 30
0.0
 10
33.68364820442164
 20
19.70926051323884
 30
0.0
 10
33.80660038691571
 20
19.81233997870099
 30
0.0
 10
33.94441141699515
 20
19.933758629945643
 30
0.0
 10
34.096244727642535
 20
20.074298618962462
 30
0.0
 10
34.261234542434636
 20
20.234711829007633
 30
0.0
 10
34.438486863466174
 20
20.415718917789988
 30
0.0
 10
34.62708048851318
 20
20.61800839107878
 30
0.0
 10
34.826068056510884
 20
20.8422357075639
 30
0.0
 10
35.03447712042366
 20
21.08902241579194
 30
0.0
 10
35.25131124663399
 20
21.358955324094087
 30
0.0
 10
35.47555113963305
 20
21.65258570394165
 30
0.0
 10
35.706155791435535
 20
21.970428528027128
 30
0.0
 10
35.9420636542836
 20
22.31296174324507
 30
0.0
 10
36.18219383586175
 20
22.680625579589293
 30
0.0
 10
36.42544731587565
 20
23.073821895508257
 30
0.0
 10
36.47308781160227
 20
23.155228011811836
 30
0.0
 10
35.99443968139336
 20
24.050715678981764
 30
0.0
 10
35.35028766344222
 20
24.835617183869765
 30
0.0
 10
35.25684699034378
 20
24.822755876951817
 30
0.0
 10
34.80049188514118
 20
24.74848868132405
 30
0.0
 10
34.368920949797115
 20
24.667336180274454
 30
0.0
 10
33.96218349222621
 20
24.58046752069744
 30
0.0
 10
33.580286432979065
 20
24.489049785705514
 30
0.0
 10
33.22319444299785
 20
24.394246619795126
 30
0.0
 10
32.89083012620889
 20
24.29721686050372
 30
0.0
 10
32.583074241640496
 20
24.199113176523877
 30
0.0
 10
32.29976596779037
 20
24.10108071432779
 30
0.0
 10
32.04070320802118
 20
24.004255754154208
 30
0.0
 10
31.805642936847324
 20
23.909764376680542
 30
0.0
 10
31.59430158671362
 20
23.818721141536834
 30
0.0
 10
31.406355476935488
 20
23.7322277818773
 30
0.0
 10
31.24144127969432
 20
23.651371893971955
 30
0.0
 10
31.099156393964638
 20
23.577225639293157
 30
0.0
 10
30.90740590966601
 20
23.471239245362717
 30
0.0
 10
30.749863133859996
 20
23.395204991854122
 30
0.0
 10
30.60764216069645
 20
23.340626116000767
 30
0.0
 10
30.481690787744366
 20
23.30669433709844
 30
0.0
 10
30.372926233795383
 20
23.29256777219325
 30
0.0
 10
30.28223386189615
 20
23.297372409168727
 30
0.0
 10
30.210466275333847
 20
23.32020290814287
 30
0.0
 10
30.158442285902975
 20
23.360123770001987
 30
0.0
 10
29.785171311139887
 20
23.838426321428077
 30
0.0
 10
29.19117630642961
 20
24.562211328849195
 30
0.0
 10
28.794885759081335
 20
25.021622205275328
 30
0.0
 10
28.76588134223568
 20
25.08043474213431
 30
0.0
 10
28.757490686468277
 20
25.155277344042744
 30
0.0
 10
28.770471573294405
 20
25.245164425613428
 30
0.0
 10
28.805545603004827
 20
25.34908314963674
 30
0.0
 10
28.863397320625452
 20
25.46599461465561
 30
0.0
 10
28.944673378502877
 20
25.594835068851783
 30
0.0
 10
29.049981736274514
 20
25.734517149152648
 30
0.0
 10
29.191340368949913
 20
25.901906373895873
 30
0.0
 10
29.291820253623303
 20
26.026991977208333
 30
0.0
 10
29.403295679632336
 20
26.172963201351077
 30
0.0
 10
29.52479356407675
 20
26.340423963353775
 30
0.0
 10
29.655318081037944
 20
26.529942794645482
 30
0.0
 10
29.793851817185228
 20
26.74205209536001
 30
0.0
 10
29.93935695012484
 20
26.97724742418279
 30
0.0
 10
30.090776448422332
 20
27.235986824373587
 30
0.0
 10
30.247035292233093
 20
27.51869018659264
 30
0.0
 10
30.40704171350586
 20
27.82573864925828
 30
0.0
 10
30.56968845448035
 20
28.157474036626027
 30
0.0
 10
30.733854043659388
 20
28.514198335749423
 30
0.0
 10
30.89840408781407
 20
28.89617321221354
 30
0.0
 10
31.06219257906039
 20
29.303619565486407
 30
0.0
 10
31.224063215776695
 20
29.73671712419596
 30
0.0
 10
31.254906767292724
 20
29.82585324445361
 30
0.0
 10
30.61075474934163
 20
30.61075474934163
 30
0.0
 10
29.82585324445359
 20
31.2549067672927
 30
0.0
 10
29.736717124195845
 20
31.22406321577666
 30
0.0
 10
29.303619565486517
 20
31.06219257906044
 30
0.0
 10
28.896173212213387
 20
30.898404087814004
 30
0.0
 10
28.5141983356092
 20
30.733854043598985
 30
0.0
 10
28.15747403662788
 20
30.56968845448556
 30
0.0
 10
27.82573864927001
 20
30.407041713510214
 30
0.0
 10
27.518690186617434
 20
30.2470352922471
 30
0.0
 10
27.23598682437387
 20
30.090776448423533
 30
0.0
 10
26.977247424183094
 20
29.939356950124676
 30
0.0
 10
26.74205209536029
 20
29.793851817185036
 30
0.0
 10
26.529942794644466
 20
29.655318081037333
 30
0.0
 10
26.34042396335436
 20
29.52479356407519
 30
0.0
 10
26.172963202763153
 20
29.403295682990198
 30
0.0
 10
26.026991986787856
 20
29.291820254453896
 30
0.0
 10
25.901906281941905
 20
29.191340295092864
 30
0.0
 10
25.73451714915284
 20
29.049981736274308
 30
0.0
 10
25.594835060609682
 20
28.94467338876332
 30
0.0
 10
25.465994634031766
 20
28.86339729525347
 30
0.0
 10
25.349083143066423
 20
28.805545612060573
 30
0.0
 10
25.24516442561997
 20
28.770471573285054
 30
0.0
 10
25.155277344041625
 20
28.757490686470053
 30
0.0
 10
25.0804347421346
 20
28.7658813422354
 30
0.0
 10
25.021622205277694
 20
28.7948857590772
 30
0.0
 10
24.562211328849436
 20
29.19117630642941
 30
0.0
 10
23.83842632142832
 20
29.785171311139685
 30
0.0
 10
23.360123770006503
 20
30.158442285901465
 30
0.0
 10
23.320202908143198
 20
30.21046627533362
 30
0.0
 10
23.297372409166762
 20
30.2822338618969
 30
0.0
 10
23.29256777220369
 20
30.3729262337908
 30
0.0
 10
23.306694326934885
 20
30.481690792421755
 30
0.0
 10
23.340626144665332
 20
30.607642146642434
 30
0.0
 10
23.39520498018287
 20
30.74986313994202
 30
0.0
 10
23.471239245362955
 20
30.907405909665865
 30
0.0
 10
23.57722569379173
 20
31.09915649856053
 30
0.0
 10
23.65137189502619
 20
31.24144127013682
 30
0.0
 10
23.73222777885944
 20
31.406355474895452
 30
0.0
 10
23.81872114153848
 20
31.594301586713346
 30
0.0
 10
23.90976437668094
 20
31.80564293684844
 30
0.0
 10
24.004255754154446
 20
32.040703208020936
 30
0.0
 10
24.101080714328006
 20
32.2997659677901
 30
0.0
 10
24.199113176522744
 20
32.583074241639984
 30
0.0
 10
24.29721686049481
 20
32.89083012618184
 30
0.0
 10
24.394246619793144
 20
33.22319444298549
 30
0.0
 10
24.489049785700757
 20
33.58028643297623
 30
0.0
 10
24.58046752072933
 20
33.962183492375516
 30
0.0
 10
24.66733618027449
 20
34.36892094979727
 30
0.0
 10
24.74848868132403
 20
34.80049188514106
 30
0.0
 10
24.822755876951838
 20
35.256846990343895
 30
0.0
 10
24.835617183869783
 20
35.350287663442245
 30
0.0
 10
24.050715678981774
 20
35.99443968139334
 30
0.0
 10
23.155228011811822
 20
36.473087811602234
 30
0.0
 10
23.073821895508154
 20
36.42544731587558
 30
0.0
 10
22.680625579589393
 20
36.18219383586181
 30
0.0
 10
22.312961743244934
 20
35.942063654283515
 30
0.0
 10
21.970428527901387
 20
35.706155791348934
 30
0.0
 10
21.652585703942453
 20
35.47555113963852
 30
0.0
 10
21.358955324104745
 20
35.251311246640554
 30
0.0
 10
21.08902241581352
 20
35.03447712044225
 30
0.0
 10
20.84223570756394
 20
34.82606805651213
 30
0.0
 10
20.61800839107911
 20
34.62708048851309
 30
0.0
 10
20.4157189177903
 20
34.43848686346604
 30
0.0
 10
20.234711829006752
 20
34.26123454243384
 30
0.0
 10
20.074298618963336
 20
34.09624472764112
 30
0.0
 10
19.933758630675502
 20
33.94441142056398
 30
0.0
 10
19.8123399879344
 20
33.80660038959922
 30
0.0
 10
19.70926043746054
 20
33.683648114044395
 30
0.0
 10
19.572665326681207
 20
33.51234972047832
 30
0.0
 10
19.456211829729003
 20
33.381814219702186
 30
0.0
 10
19.34570321507556
 20
33.27696430322927
 30
0.0
 10
19.242324449130027
 20
33.19741592348731
 30
0.0
 10
19.14724510621929
 20
33.142742286481855
 30
0.0
 10
19.06161762509764
 20
33.11247472407691
 30
0.0
 10
18.986576167064964
 20
33.106103088437926
 30
0.0
 10
18.92323521559098
 20
33.12307643678905
 30
0.0
 10
18.395339339838113
 20
33.422125756574935
 30
0.0
 10
17.569578981638035
 20
33.863503863659595
 30
0.0
 10
17.02764532495866
 20
34.13629034252969
 30
0.0
 10
16.978342154411237
 20
34.179526531796526
 30
0.0
 10
16.941949175497935
 20
34.24546111491075
 30
0.0
 10
16.919543654249686
 20
34.333473520136856
 30
0.0
 10
16.9121798584256
 20
34.442904152383136
 30
0.0
 10
16.920887795539667
 20
34.57305515589726
 30
0.0
 10
16.946671974656553
 20
34.7231912152862
 30
0.0
 10
16.990510193074712
 20
34.89254039414354
 30
0.0
 10
17.057051457481627
 20
35.10128347959339
 30
0.0
 10
17.102014578345393
 20
35.255299495456065
 30
0.0
 10
17.14914367373164
 20
35.43281912042666
 30
0.0
 10
17.197308623223588
 20
35.63402791838398
 30
0.0
 10
17.245371836078426
 20
35.859070057798355
 30
0.0
 10
17.29218960423323
 20
36.108048065030985
 30
0.0
 10
17.33661346272133
 20
36.38102261917269
 30
0.0
 10
17.37749155626841
 20
36.6780123885987
 30
0.0
 10
17.413670010843912
 20
36.99899390941191
 30
0.0
 10
17.443994308932893
 20
37.34390150605087
 30
0.0
 10
17.467310667274035
 20
37.71262725374874
 30
0.0
 10
17.482467415862637
 20
38.105020983601555
 30
0.0
 10
17.48831637692846
 20
38.52089032959322
 30
0.0
 10
17.483714242676736
 20
38.96000081799043
 30
0.0
 10
17.46752395053759
 20
39.422075998920505
 30
0.0
 10
17.46190876004531
 20
39.51623035219452
 30
0.0
 10
16.56642109287538
 20
39.99487848240345
 30
0.0
 10
15.59476035227758
 20
40.28962854565518
 30
0.0
 10
15.524212631324472
 20
40.227021903251604
 30
0.0
 10
15.186027872110005
 20
39.9117336747591
 30
0.0
 10
14.872275667736679
 20
39.60448987106042
 30
0.0
 10
14.582347473024578
 20
39.306289996280206
 30
0.0
 10
14.315600645564464
 20
39.018108289413455
 30
0.0
 10
14.071359324074267
 20
38.740892657725595
 30
0.0
 10
13.848915340429913
 20
38.475563640459924
 30
0.0
 10
13.647529160972764
 20
38.22301339987293
 30
0.0
 10
13.466430858218265
 20
37.984104742818396
 30
0.0
 10
13.304821111476697
 20
37.75967017290998
 30
0.0
 10
13.161872235537428
 20
37.55051097428631
 30
0.0
 10
13.036729236441909
 20
37.35739632771814
 30
0.0
 10
12.928510893391612
 20
37.18106246349072
 30
0.0
 10
12.836310874232892
 20
37.02221183073217
 30
0.0
 10
12.759198767448149
 20
36.88151222598069
 30
0.0
 10
12.658646952182387
 20
36.6868568988666
 30
0.0
 10
12.569897289401135
 20
36.53611065091499
 30
0.0
 10
12.48196727075935
 20
36.411716234968544
 30
0.0
 10
12.396094017833443
 20
36.31352815829976
 30
0.0
 10
12.313507895285364
 20
36.24135600027317
 30
0.0
 10
12.235430630699469
 20
36.19496492772726
 30
0.0
 10
12.163074117689602
 20
36.1740758590683
 30
0.0
 10
12.097638908841672
 20
36.17836586267037
 30
0.0
 10
11.521544776221953
 20
36.36868165723934
 30
0.0
 10
10.625542574716805
 20
36.640480953570815
 30
0.0
 10
10.040804019286162
 20
36.802299905146675
 30
0.0
 10
9.984013233249224
 20
36.83508675174181
 30
0.0
 10
9.935456336169276
 20
36.89265450235444
 30
0.0
 10
9.89631096225226
 20
36.97460467353782
 30
0.0
 10
9.867739802416743
 20
37.08049602157161
 30
0.0
 10
9.850889217774606
 20
37.20984504430365
 30
0.0
 10
9.846887868947306
 20
37.3621265252169
 30
0.0
 10
9.856845362454493
 20
37.53677411923637
 30
0.0
 10
9.881384299365164
 20
37.754487821532045
 30
0.0
 10
9.895436432339048
 20
37.91431633256467
 30
0.0
 10
9.907027594572902
 20
38.097619398113764
 30
0.0
 10
9.915013178879997
 20
38.30435854094421
 30
0.0
 10
9.918249327131361
 20
38.534453226425256
 30
0.0
 10
9.915594305392974
 20
38.787780884528544
 30
0.0
 10
9.905909878227108
 20
39.06417697401301
 30
0.0
 10
9.888062680916212
 20
39.36343508872989
 30
0.0
 10
9.860925588374927
 20
39.68530710597811
 30
0.0
 10
9.823379079485054
 20
40.02950337693994
 30
0.0
 10
9.77431259568464
 20
40.395692958644716
 30
0.0
 10
9.712625892485015
 20
40.78350388796974
 30
0.0
 10
9.637230382777874
 20
41.192523496787075
 30
0.0
 10
9.547050470663278
 20
41.6222987684246
 30
0.0
 10
9.441024874604464
 20
42.07233673501352
 30
0.0
 10
9.417148975323503
 20
42.16358646946916
 30
0.0
 10
8.44548823472574
 20
42.45833653272094
 30
0.0
 10
7.434994798047693
 20
42.55786144938259
 30
0.0
 10
7.378016581797752
 20
42.48269459845946
 30
0.0
 10
7.10783962992799
 20
42.107487971293494
 30
0.0
 10
6.860056378785601
 20
41.74493775254627
 30
0.0
 10
6.63387498263413
 20
41.39590551987582
 30
0.0
 10
6.4284750826587835
 20
41.061221419233455
 30
0.0
 10
6.243008876528853
 20
40.74168329011715
 30
0.0
 10
6.076602215074798
 20
40.43805582711939
 30
0.0
 10
5.928355722347951
 20
40.151069773989484
 30
0.0
 10
5.79734593953754
 20
39.88142115358854
 30
0.0
 10
5.682626491278699
 20
39.629770533475984
 30
0.0
 10
5.583229273319403
 20
39.396742327966116
 30
0.0
 10
5.498165660446019
 20
39.18292413719018
 30
0.0
 10
5.426427732867135
 20
38.988866127325565
 30
0.0
 10
5.366989532320699
 20
38.81508043350567
 30
0.0
 10
5.318808244243849
 20
38.662040506462894
 30
0.0
 10
5.258163874362207
 20
38.45150874085781
 30
0.0
 10
5.200528645521207
 20
38.28634483950004
 30
0.0
 10
5.138556324195761
 20
38.1471863317237
 30
0.0
 10
5.073488645241146
 20
38.03413187084997
 30
0.0
 10
5.00656948143042
 20
37.94723472736058
 30
0.0
 10
4.93904289887208
 20
37.886502927575236
 30
0.0
 10
4.872151951101992
 20
37.85189918109013
 30
0.0
 10
4.807137123259654
 20
37.84334097751058
 30
0.0
 10
4.204983708212349
 20
37.9176095176077
 30
0.0
 10
3.2731725255221473
 20
38.00938490865476
 30
0.0
 10
2.668100246100278
 20
38.05401772137644
 30
0.0
 10
2.6060042826325813
 20
38.075095245172285
 30
0.0
 10
2.5471494817097504
 20
38.12208386691165
 30
0.0
 10
2.492768589890619
 20
38.19482250493192
 30
0.0
 10
2.4440880396932614
 20
38.293105223632836
 30
0.0
 10
2.4023264918128
 20
38.41668145517897
 30
0.0
 10
2.368693384632767
 20
38.56525626570547
 30
0.0
 10
2.344387492337727
 20
38.7384906657924
 30
0.0
 10
2.32598108416827
 20
38.956808369449924
 30
0.0
 10
2.3085822136626106
 20
39.11630725560637
 30
0.0
 10
2.284190000879824
 20
39.29834952772246
 30
0.0
 10
2.2516893384755137
 20
39.502674146107694
 30
0.0
 10
2.209974058760955
 20
39.72897896793097
 30
0.0
 10
2.157948278125832
 20
39.9769210370718
 30
0.0
 10
2.094527732410892
 20
40.246116915184835
 30
0.0
 10
2.0186411020258577
 20
40.53614305366991
 30
0.0
 10
1.9292313256154885
 20
40.8465362062382
 30
0.0
 10
1.8252569010270774
 20
41.17679388185734
 30
0.0
 10
1.7056931725407511
 20
41.526374837305575
 30
0.0
 10
1.5695336029625642
 20
41.89469960957573
 30
0.0
 10
1.415791029638216
 20
42.281151087032725
 30
0.0
 10
1.243498903109829
 20
42.685075119242285
 30
0.0
 10
1.0517125073280513
 20
43.10578116481823
 30
0.0
 10
1.010493436678062
 20
43.19061960433392
 30
0.0
 10
7.105427357601002e-15
 20
43.29014452099555
 30
0.0
 10
-1.010493436678055
 20
43.1906196043339
 30
0.0
 10
-1.051712507328097
 20
43.10578116481812
 30
0.0
 10
-1.2434989031097778
 20
42.68507511924239
 30
0.0
 10
-1.4157910296382763
 20
42.281151087032576
 30
0.0
 10
-1.5695336030190035
 20
41.894699609433864
 30
0.0
 10
-1.7056931725431228
 20
41.52637483731058
 30
0.0
 10
-1.8252569010218591
 20
41.17679388186872
 30
0.0
 10
-1.9292313256078664
 20
40.84653620626564
 30
0.0
 10
-2.0186411020265123
 20
40.53614305367097
 30
0.0
 10
-2.0945277324105627
 20
40.246116915184935
 30
0.0
 10
-2.157948278125496
 20
39.97692103707186
 30
0.0
 10
-2.209974058761245
 20
39.72897896792982
 30
0.0
 10
-2.251689338473994
 20
39.502674146107005
 30
0.0
 10
-2.2841900022557
 20
39.29834953109531
 30
0.0
 10
-2.308582207476181
 20
39.11630726296743
 30
0.0
 10
-2.3259810969647225
 20
38.956808252203835
 30
0.0
 10
-2.344387492337447
 20
38.73849066579239
 30
0.0
 10
-2.368693397716043
 20
38.56525626713265
 30
0.0
 10
-2.4023264601710905
 20
38.41668145093927
 30
0.0
 10
-2.444088050742564
 20
38.29310522539029
 30
0.0
 10
-2.49276858987939
 20
38.19482250492993
 30
0.0
 10
-2.5471494817118017
 20
38.122083866912114
 30
0.0
 10
-2.6060042826321816
 20
38.07509524517229
 30
0.0
 10
-2.668100246095683
 20
38.05401772137518
 30
0.0
 10
-3.2731725255218316
 20
38.00938490865479
 30
0.0
 10
-4.204983708212034
 20
37.91760951760773
 30
0.0
 10
-4.807137123255392
 20
37.8433409775127
 30
0.0
 10
-4.872151951101599
 20
37.85189918109021
 30
0.0
 10
-4.939042898874002
 20
37.88650292757438
 30
0.0
 10
-5.006569481419795
 20
37.94723472736472
 30
0.0
 10
-5.073488655735276
 20
38.03413186697066
 30
0.0
 10
-5.138556293989161
 20
38.14718634205492
 30
0.0
 10
-5.200528658074663
 20
38.28634483554786
 30
0.0
 10
-5.2581638743619346
 20
38.451508740857875
 30
0.0
 10
-5.318808279668
 20
38.66204061895967
 30
0.0
 10
-5.366989524817067
 20
38.81508042749296
 30
0.0
 10
-5.426427733558563
 20
38.98886612374909
 30
0.0
 10
-5.498165660444664
 20
39.18292413719115
 30
0.0
 10
-5.583229273319911
 20
39.39674232796719
 30
0.0
 10
-5.682626491278357
 20
39.62977053347598
 30
0.0
 10
-5.7973459395371965
 20
39.881421153588505
 30
0.0
 10
-5.928355722348386
 20
40.151069773988326
 30
0.0
 10
-6.076602215061969
 20
40.43805582709396
 30
0.0
 10
-6.2430088765215155
 20
40.741683290107005
 30
0.0
 10
-6.4284750826601345
 20
41.06122141922809
 30
0.0
 10
-6.633874982717161
 20
41.39590552000394
 30
0.0
 10
-6.860056378785689
 20
41.744937752546406
 30
0.0
 10
-7.107839629927919
 20
42.107487971293395
 30
0.0
 10
-7.378016581797818
 20
42.48269459845956
 30
0.0
 10
-7.434994798047689
 20
42.557861449382614
 30
0.0
 10
-8.445488234725747
 20
42.45833653272099
 30
0.0
 10
-9.417148975323517
 20
42.1635864694692
 30
0.0
 10
-9.441024874604496
 20
42.0723367350134
 30
0.0
 10
-9.547050470663256
 20
41.62229876842471
 30
0.0
 10
-9.63723038277791
 20
41.19252349678692
 30
0.0
 10
-9.712625892512703
 20
40.78350388781959
 30
0.0
 10
-9.774312595687949
 20
40.39569295864916
 30
0.0
 10
-9.823379079482166
 20
40.02950337695212
 30
0.0
 10
-9.860925588372814
 20
39.685307106006505
 30
0.0
 10
-9.888062680917068
 20
39.363435088730796
 30
0.0
 10
-9.90590987822681
 20
39.064176974013165
 30
0.0
 10
-9.915594305392665
 20
38.78778088452867
 30
0.0
 10
-9.918249327131429
 20
38.53445322642408
 30
0.0
 10
-9.915013178878384
 20
38.304358540943824
 30
0.0
 10
-9.907027596580361
 20
38.097619401153395
 30
0.0
 10
-9.89543642770757
 20
37.9143163409912
 30
0.0
 10
-9.881384289042169
 20
37.75448770404234
 30
0.0
 10
-9.856845362454226
 20
37.53677411923642
 30
0.0
 10
-9.846887882057628
 20
37.362126524064244
 30
0.0
 10
-9.850889185913768
 20
37.209845046318414
 30
0.0
 10
-9.867739813596607
 20
37.080496021139695
 30
0.0
 10
-9.896310962240866
 20
36.97460467353806
 30
0.0
 10
-9.935456336171386
 20
36.892654502354496
 30
0.0
 10
-9.98401323324884
 20
36.83508675174189
 30
0.0
 10
-10.040804019281419
 20
36.80229990514634
 30
0.0
 10
-10.62554257471651
 20
36.64048095357091
 30
0.0
 10
-11.521544776221658
 20
36.36868165723944
 30
0.0
 10
-12.097638908837915
 20
36.178365862673274
 30
0.0
 10
-12.16307411768924
 20
36.17407585906845
 30
0.0
 10
-12.235430630701195
 20
36.19496492772605
 30
0.0
 10
-12.313507895275759
 20
36.2413560002793
 30
0.0
 10
-12.396094027369124
 20
36.3135281524477
 30
0.0
 10
-12.48196724314869
 20
36.41171625099427
 30
0.0
 10
-12.569897300942356
 20
36.53611064458969
 30
0.0
 10
-12.65864695218214
 20
36.68685689886671
 30
0.0
 10
-12.759198824138675
 20
36.88151232940497
 30
0.0
 10
-12.836310865700428
 20
37.02221182629888
 30
0.0
 10
-12.928510893372026
 20
37.18106245984808
 30
0.0
 10
-13.03672923644078
 20
37.35739632771936
 30
0.0
 10
-13.161872235538143
 20
37.550510974287256
 30
0.0
 10
-13.30482111147637
 20
37.75967017291005
 30
0.0
 10
-13.46643085821793
 20
37.984104742818424
 30
0.0
 10
-13.647529160972974
 20
38.223013399871704
 30
0.0
 10
-13.848915340412377
 20
38.475563640437485
 30
0.0
 10
-14.071359324065101
 20
38.74089265771708
 30
0.0
 10
-14.315600645564752
 20
39.01810828940793
 30
0.0
 10
-14.58234747313102
 20
39.30628999638967
 30
0.0
 10
-14.8722756677368
 20
39.60448987106053
 30
0.0
 10
-15.186027872109923
 20
39.91173367475901
 30
0.0
 10
-15.524212631324566
 20
40.227021903251696
 30
0.0
 10
-15.594760352277598
 20
40.28962854565522
 30
0.0
 10
-16.56642109287537
 20
39.994878482403436
 30
0.0
 10
-17.461908760045286
 20
39.516230352194476
 30
0.0
 10
-17.4675239505376
 20
39.422075998920384
 30
0.0
 10
-17.48371424267674
 20
38.96000081799054
 30
0.0
 10
-17.488316376928463
 20
38.52089032959306
 30
0.0
 10
-17.4824674158605
 20
38.10502098344889
 30
0.0
 10
-17.46731066727815
 20
37.71262725375245
 30
0.0
 10
-17.443994308932435
 20
37.343901506063375
 30
0.0
 10
-17.413670010847383
 20
36.99899390944017
 30
0.0
 10
-17.377491556269423
 20
36.67801238859942
 30
0.0
 10
-17.336613462721072
 20
36.3810226191729
 30
0.0
 10
-17.292189604232956
 20
36.10804806503118
 30
0.0
 10
-17.24537183607826
 20
35.859070057797176
 30
0.0
 10
-17.197308623221932
 20
35.63402791838392
 30
0.0
 10
-17.14914367629353
 20
35.43281912301625
 30
0.0
 10
-17.102014575446844
 20
35.25529950462424
 30
0.0
 10
-17.057051424435883
 20
35.101283366375135
 30
0.0
 10
-16.99051019307446
 20
34.89254039414364
 30
0.0
 10
-16.94667198729009
 20
34.72319121159798
 30
0.0
 10
-16.920887764684085
 20
34.57305516408905
 30
0.0
 10
-16.91217986930638
 20
34.44290414977843
 30
0.0
 10
-16.91954365423856
 20
34.33347352013931
 30
0.0
 10
-16.941949175500014
 20
34.2454611149104
 30
0.0
 10
-16.97834215441088
 20
34.17952653179668
 30
0.0
 10
-17.02764532495394
 20
34.13629034253029
 30
0.0
 10
-17.56957898163776
 20
33.86350386365974
 30
0.0
 10
-18.395339339837843
 20
33.42212575657508
 30
0.0
 10
-18.923235215587866
 20
33.123076436792644
 30
0.0
 10
-18.986576167064637
 20
33.10610308843814
 30
0.0
 10
-19.0616176250991
 20
33.11247472407538
 30
0.0
 10
-19.147245106211066
 20
33.14274228648975
 30
0.0
 10
-19.242324457340803
 20
33.19741591588737
 30
0.0
 10
-19.345703191121896
 20
33.27696432433363
 30
0.0
 10
-19.45621183981446
 20
33.38181421124685
 30
0.0
 10
-19.57266532668099
 20
33.51234972047848
 30
0.0
 10
-19.709260513238842
 20
33.68364820442163
 30
0.0
 10
-19.812339978700994
 20
33.806600386915704
 30
0.0
 10
-19.93375862994565
 20
33.94441141699515
 30
0.0
 10
-20.074298618962466
 20
34.09624472764253
 30
0.0
 10
-20.23471182900764
 20
34.261234542434636
 30
0.0
 10
-20.41571891778999
 20
34.43848686346617
 30
0.0
 10
-20.61800839107879
 20
34.62708048851318
 30
0.0
 10
-20.84223570756391
 20
34.82606805651088
 30
0.0
 10
-21.08902241579195
 20
35.03447712042366
 30
0.0
 10
-21.35895532409409
 20
35.25131124663399
 30
0.0
 10
-21.652585703941654
 20
35.47555113963304
 30
0.0
 10
-21.970428528027135
 20
35.706155791435535
 30
0.0
 10
-22.31296174324508
 20
35.9420636542836
 30
0.0
 10
-22.6806255795893
 20
36.182193835861746
 30
0.0
 10
-23.07382189550826
 20
36.425447315875644
 30
0.0
 10
-23.155228011811822
 20
36.473087811602234
 30
0.0
 10
-24.05071567898174
 20
35.99443968139332
 30
0.0
 10
-24.835617183869765
 20
35.35028766344222
 30
0.0
 10
-24.822755876951817
 20
35.25684699034378
 30
0.0
 10
-24.74848868132405
 20
34.80049188514118
 30
0.0
 10
-24.667336180274454
 20
34.368920949797115
 30
0.0
 10
-24.58046752069744
 20
33.96218349222621
 30
0.0
 10
-24.489049785705514
 20
33.580286432979065
 30
0.0
 10
-24.394246619795126
 20
33.22319444299785
 30
0.0
 10
-24.29721686050372
 20
32.89083012620889
 30
0.0
 10
-24.199113176523877
 20
32.583074241640496
 30
0.0
 10
-24.10108071432779
 20
32.29976596779037
 30
0.0
 10
-24.004255754154208
 20
32.04070320802118
 30
0.0
 10
-23.909764376680542
 20
31.805642936847324
 30
0.0
 10
-23.818721141536834
 20
31.59430158671362
 30
0.0
 10
-23.7322277818773
 20
31.406355476935488
 30
0.0
 10
-23.651371893971955
 20
31.24144127969432
 30
0.0
 10
-23.577225639293157
 20
31.099156393964638
 30
0.0
 10
-23.471239245362717
 20
30.90740590966601
 30
0.0
 10
-23.395204991854122
 20
30.749863133859996
 30
0.0
 10
-23.340626116000767
 20
30.60764216069645
 30
0.0
 10
-23.30669433709844
 20
30.481690787744366
 30
0.0
 10
-23.29256777219325
 20
30.372926233795383
 30
0.0
 10
-23.297372409168727
 20
30.28223386189615
 30
0.0
 10
-23.32020290814287
 20
30.210466275333847
 30
0.0
 10
-23.360123770001987
 20
30.158442285902975
 30
0.0
 10
-23.838426321428077
 20
29.785171311139887
 30
0.0
 10
-24.562211328849195
 20
29.19117630642961
 30
0.0
 10
-25.021622205275328
 20
28.794885759081335
 30
0.0
 10
-25.08043474213431
 20
28.76588134223568
 30
0.0
 10
-25.155277344042744
 20
28.757490686468277
 30
0.0
 10
-25.245164425613428
 20
28.770471573294405
 30
0.0
 10
-25.34908314963674
 20
28.805545603004827
 30
0.0
 10
-25.46599461465561
 20
28.863397320625452
 30
0.0
 10
-25.594835068851783
 20
28.944673378502877
 30
0.0
 10
-25.734517149152648
 20
29.049981736274514
 30
0.0
 10
-25.901906373895873
 20
29.191340368949913
 30
0.0
 10
-26.026991977208333
 20
29.291820253623303
 30
0.0
 10
-26.172963201351077
 20
29.403295679632336
 30
0.0
 10
-26.340423963353775
 20
29.52479356407675
 30
0.0
 10
-26.529942794645482
 20
29.655318081037944
 30
0.0
 10
-26.74205209536001
 20
29.793851817185228
 30
0.0
 10
-26.97724742418279
 20
29.93935695012484
 30
0.0
 10
-27.235986824373587
 20
30.090776448422332
 30
0.0
 10
-27.51869018659264
 20
30.247035292233093
 30
0.0
 10
-27.82573864925828
 20
30.40704171350586
 30
0.0
 10
-28.157474036626027
 20
30.56968845448035
 30
0.0
 10
-28.514198335749423
 20
30.733854043659388
 30
0.0
 10
-28.89617321221354
 20
30.89840408781407
 30
0.0
 10
-29.303619565486407
 20
31.06219257906039
 30
0.0
 10
-29.73671712419596
 20
31.224063215776695
 30
0.0
 10
-29.82585324445361
 20
31.254906767292724
 30
0.0
 10
-30.61075474934163
 20
30.61075474934163
 30
0.0
 10
-31.254906767292695
 20
29.825853244453583
 30
0.0
 10
-31.22406321577666
 20
29.736717124195838
 30
0.0
 10
-31.06219257906044
 20
29.303619565486514
 30
0.0
 10
-30.89840408781401
 20
28.89617321221338
 30
0.0
 10
-30.733854043598992
 20
28.514198335609194
 30
0.0
 10
-30.56968845448556
 20
28.157474036627878
 30
0.0
 10
-30.40704171351022
 20
27.82573864927001
 30
0.0
 10
-30.24703529224711
 20
27.51869018661743
 30
0.0
 10
-30.09077644842354
 20
27.235986824373867
 30
0.0
 10
-29.939356950124676
 20
26.977247424183087
 30
0.0
 10
-29.793851817185043
 20
26.742052095360286
 30
0.0
 10
-29.655318081037343
 20
26.529942794644462
 30
0.0
 10
-29.524793564075196
 20
26.340423963354358
 30
0.0
 10
-29.403295682990205
 20
26.172963202763153
 30
0.0
 10
-29.291820254453896
 20
26.026991986787852
 30
0.0
 10
-29.19134029509287
 20
25.901906281941898
 30
0.0
 10
-29.04998173627431
 20
25.734517149152833
 30
0.0
 10
-28.944673388763324
 20
25.594835060609682
 30
0.0
 10
-28.863397295253474
 20
25.465994634031762
 30
0.0
 10
-28.805545612060577
 20
25.349083143066416
 30
0.0
 10
-28.770471573285057
 20
25.24516442561996
 30
0.0
 10
-28.757490686470057
 20
25.15527734404162
 30
0.0
 10
-28.765881342235403
 20
25.080434742134596
 30
0.0
 10
-28.794885759077204
 20
25.02162220527769
 30
0.0
 10
-29.191176306429412
 20
24.562211328849433
 30
0.0
 10
-29.785171311139692
 20
23.83842632142831
 30
0.0
 10
-30.15844228590147
 20
23.3601237700065
 30
0.0
 10
-30.210466275333623
 20
23.320202908143195
 30
0.0
 10
-30.282233861896902
 20
23.297372409166755
 30
0.0
 10
-30.372926233790803
 20
23.292567772203682
 30
0.0
 10
-30.48169079242176
 20
23.30669432693488
 30
0.0
 10
-30.60764214664244
 20
23.340626144665325
 30
0.0
 10
-30.74986313994202
 20
23.39520498018287
 30
0.0
 10
-30.907405909665865
 20
23.471239245362952
 30
0.0
 10
-31.09915649856053
 20
23.577225693791725
 30
0.0
 10
-31.24144127013683
 20
23.651371895026188
 30
0.0
 10
-31.40635547489546
 20
23.732227778859432
 30
0.0
 10
-31.594301586713346
 20
23.818721141538475
 30
0.0
 10
-31.80564293684844
 20
23.909764376680936
 30
0.0
 10
-32.040703208020936
 20
24.004255754154443
 30
0.0
 10
-32.29976596779011
 20
24.101080714328
 30
0.0
 10
-32.583074241639984
 20
24.199113176522737
 30
0.0
 10
-32.89083012618185
 20
24.297216860494803
 30
0.0
 10
-33.223194442985495
 20
24.39424661979314
 30
0.0
 10
-33.58028643297623
 20
24.489049785700754
 30
0.0
 10
-33.96218349237552
 20
24.58046752072932
 30
0.0
 10
-34.36892094979728
 20
24.667336180274482
 30
0.0
 10
-34.80049188514106
 20
24.748488681324023
 30
0.0
 10
-35.2568469903439
 20
24.822755876951835
 30
0.0
 10
-35.35028766344224
 20
24.83561718386978
 30
0.0
 10
-35.994439681393345
 20
24.05071567898175
 30
0.0
 10
-36.47308781160224
 20
23.155228011811808
 30
0.0
 10
-36.425447315875594
 20
23.07382189550814
 30
0.0
 10
-36.182193835861824
 20
22.68062557958938
 30
0.0
 10
-35.94206365428352
 20
22.31296174324492
 30
0.0
 10
-35.70615579134895
 20
21.97042852790137
 30
0.0
 10
-35.475551139638526
 20
21.65258570394244
 30
0.0
 10
-35.25131124664056
 20
21.35895532410473
 30
0.0
 10
-35.03447712044226
 20
21.089022415813506
 30
0.0
 10
-34.826068056512135
 20
20.842235707563926
 30
0.0
 10
-34.627080488513094
 20
20.618008391079094
 30
0.0
 10
-34.43848686346605
 20
20.415718917790286
 30
0.0
 10
-34.261234542433854
 20
20.234711829006738
 30
0.0
 10
-34.09624472764113
 20
20.074298618963326
 30
0.0
 10
-33.94441142056399
 20
19.933758630675488
 30
0.0
 10
-33.80660038959923
 20
19.81233998793439
 30
0.0
 10
-33.68364811404441
 20
19.709260437460525
 30
0.0
 10
-33.512349720478326
 20
19.572665326681197
 30
0.0
 10
-33.3818142197022
 20
19.45621182972899
 30
0.0
 10
-33.27696430322928
 20
19.345703215075545
 30
0.0
 10
-33.19741592348732
 20
19.242324449130017
 30
0.0
 10
-33.14274228648186
 20
19.147245106219277
 30
0.0
 10
-33.112474724076925
 20
19.061617625097625
 30
0.0
 10
-33.10610308843794
 20
18.98657616706495
 30
0.0
 10
-33.123076436789056
 20
18.923235215590967
 30
0.0
 10
-33.42212575657494
 20
18.3953393398381
 30
0.0
 10
-33.8635038636596
 20
17.56957898163802
 30
0.0
 10
-34.136290342529705
 20
17.027645324958648
 30
0.0
 10
-34.17952653179654
 20
16.978342154411223
 30
0.0
 10
-34.24546111491077
 20
16.94194917549792
 30
0.0
 10
-34.33347352013686
 20
16.919543654249672
 30
0.0
 10
-34.44290415238314
 20
16.912179858425585
 30
0.0
 10
-34.573055155897265
 20
16.920887795539652
 30
0.0
 10
-34.72319121528621
 20
16.946671974656535
 30
0.0
 10
-34.89254039414355
 20
16.990510193074698
 30
0.0
 10
-35.101283479593405
 20
17.057051457481617
 30
0.0
 10
-35.25529949545607
 20
17.10201457834538
 30
0.0
 10
-35.43281912042667
 20
17.149143673731626
 30
0.0
 10
-35.634027918383985
 20
17.197308623223574
 30
0.0
 10
-35.85907005779837
 20
17.245371836078412
 30
0.0
 10
-36.108048065031
 20
17.29218960423321
 30
0.0
 10
-36.3810226191727
 20
17.336613462721317
 30
0.0
 10
-36.67801238859871
 20
17.377491556268392
 30
0.0
 10
-36.998993909411915
 20
17.413670010843898
 30
0.0
 10
-37.34390150605088
 20
17.443994308932876
 30
0.0
 10
-37.71262725374875
 20
17.46731066727402
 30
0.0
 10
-38.10502098360156
 20
17.482467415862622
 30
0.0
 10
-38.520890329593236
 20
17.48831637692844
 30
0.0
 10
-38.960000817990434
 20
17.483714242676722
 30
0.0
 10
-39.42207599892051
 20
17.467523950537572
 30
0.0
 10
-39.516230352194505
 20
17.46190876004528
 30
0.0
 10
-39.99487848240342
 20
16.566421092875366
 30
0.0
 10
-40.28962854565519
 20
15.59476035227759
 30
0.0
 10
-40.227021903251604
 20
15.524212631324474
 30
0.0
 10
-39.9117336747591
 20
15.186027872110005
 30
0.0
 10
-39.604489871060416
 20
14.872275667736682
 30
0.0
 10
-39.306289996280206
 20
14.582347473024578
 30
0.0
 10
-39.018108289413455
 20
14.315600645564468
 30
0.0
 10
-38.740892657725595
 20
14.071359324074269
 30
0.0
 10
-38.475563640459924
 20
13.848915340429917
 30
0.0
 10
-38.22301339987293
 20
13.647529160972768
 30
0.0
 10
-37.984104742818396
 20
13.466430858218269
 30
0.0
 10
-37.75967017290998
 20
13.3048211114767
 30
0.0
 10
-37.55051097428631
 20
13.161872235537428
 30
0.0
 10
-37.35739632771814
 20
13.036729236441913
 30
0.0
 10
-37.18106246349072
 20
12.928510893391614
 30
0.0
 10
-37.02221183073217
 20
12.836310874232895
 30
0.0
 10
-36.88151222598069
 20
12.759198767448153
 30
0.0
 10
-36.6868568988666
 20
12.658646952182389
 30
0.0
 10
-36.53611065091499
 20
12.569897289401137
 30
0.0
 10
-36.411716234968544
 20
12.48196727075935
 30
0.0
 10
-36.31352815829976
 20
12.396094017833445
 30
0.0
 10
-36.24135600027317
 20
12.313507895285367
 30
0.0
 10
-36.19496492772726
 20
12.23543063069947
 30
0.0
 10
-36.174075859068296
 20
12.163074117689604
 30
0.0
 10
-36.17836586267037
 20
12.097638908841672
 30
0.0
 10
-36.36868165723934
 20
11.521544776221956
 30
0.0
 10
-36.640480953570815
 20
10.625542574716807
 30
0.0
 10
-36.802299905146675
 20
10.040804019286165
 30
0.0
 10
-36.835086751741805
 20
9.984013233249225
 30
0.0
 10
-36.89265450235444
 20
9.935456336169278
 30
0.0
 10
-36.97460467353782
 20
9.896310962252262
 30
0.0
 10
-37.08049602157161
 20
9.867739802416745
 30
0.0
 10
-37.20984504430365
 20
9.850889217774608
 30
0.0
 10
-37.3621265252169
 20
9.846887868947308
 30
0.0
 10
-37.53677411923637
 20
9.856845362454496
 30
0.0
 10
-37.754487821532045
 20
9.881384299365168
 30
0.0
 10
-37.91431633256467
 20
9.89543643233905
 30
0.0
 10
-38.097619398113764
 20
9.907027594572904
 30
0.0
 10
-38.30435854094421
 20
9.91501317888
 30
0.0
 10
-38.534453226425256
 20
9.918249327131363
 30
0.0
 10
-38.787780884528544
 20
9.915594305392977
 30
0.0
 10
-39.06417697401301
 20
9.90590987822711
 30
0.0
 10
-39.36343508872989
 20
9.888062680916216
 30
0.0
 10
-39.68530710597811
 20
9.86092558837493
 30
0.0
 10
-40.02950337693994
 20
9.823379079485056
 30
0.0
 10
-40.395692958644716
 20
9.774312595684641
 30
0.0
 10
-40.78350388796974
 20
9.712625892485018
 30
0.0
 10
-41.192523496787075
 20
9.637230382777878
 30
0.0
 10
-41.6222987684246
 20
9.54705047066328
 30
0.0
 10
-42.07233673501352
 20
9.441024874604466
 30
0.0
 10
-42.16358646946918
 20
9.41714897532351
 30
0.0
 10
-42.45833653272096
 20
8.445488234725753
 30
0.0
 10
-42.55786144938259
 20
7.434994798047695
 30
0.0
 10
-42.48269459845946
 20
7.3780165817977545
 30
0.0
 10
-42.107487971293494
 20
7.107839629927993
 30
0.0
 10
-41.74493775254627
 20
6.860056378785604
 30
0.0
 10
-41.39590551987582
 20
6.633874982634133
 30
0.0
 10
-41.061221419233455
 20
6.428475082658786
 30
0.0
 10
-40.74168329011715
 20
6.243008876528855
 30
0.0
 10
-40.43805582711939
 20
6.076602215074801
 30
0.0
 10
-40.151069773989484
 20
5.928355722347954
 30
0.0
 10
-39.88142115358854
 20
5.797345939537542
 30
0.0
 10
-39.629770533475984
 20
5.6826264912787
 30
0.0
 10
-39.396742327966116
 20
5.583229273319405
 30
0.0
 10
-39.18292413719018
 20
5.498165660446021
 30
0.0
 10
-38.988866127325565
 20
5.426427732867137
 30
0.0
 10
-38.81508043350567
 20
5.366989532320701
 30
0.0
 10
-38.662040506462894
 20
5.318808244243851
 30
0.0
 10
-38.45150874085781
 20
5.258163874362209
 30
0.0
 10
-38.28634483950004
 20
5.200528645521209
 30
0.0
 10
-38.1471863317237
 20
5.138556324195763
 30
0.0
 10
-38.03413187084997
 20
5.073488645241148
 30
0.0
 10
-37.94723472736058
 20
5.006569481430422
 30
0.0
 10
-37.886502927575236
 20
4.939042898872081
 30
0.0
 10
-37.85189918109013
 20
4.872151951101994
 30
0.0
 10
-37.84334097751058
 20
4.807137123259656
 30
0.0
 10
-37.9176095176077
 20
4.2049837082123505
 30
0.0
 10
-38.00938490865476
 20
3.2731725255221495
 30
0.0
 10
-38.05401772137644
 20
2.66810024610028
 30
0.0
 10
-38.075095245172285
 20
2.6060042826325835
 30
0.0
 10
-38.12208386691165
 20
2.547149481709753
 30
0.0
 10
-38.19482250493192
 20
2.4927685898906216
 30
0.0
 10
-38.293105223632836
 20
2.444088039693264
 30
0.0
 10
-38.41668145517897
 20
2.4023264918128024
 30
0.0
 10
-38.56525626570547
 20
2.3686933846327696
 30
0.0
 10
-38.7384906657924
 20
2.3443874923377295
 30
0.0
 10
-38.956808369449924
 20
2.325981084168273
 30
0.0
 10
-39.11630725560637
 20
2.3085822136626133
 30
0.0
 10
-39.29834952772246
 20
2.2841900008798266
 30
0.0
 10
-39.502674146107694
 20
2.2516893384755163
 30
0.0
 10
-39.72897896793097
 20
2.2099740587609578
 30
0.0
 10
-39.9769210370718
 20
2.157948278125834
 30
0.0
 10
-40.246116915184835
 20
2.0945277324108944
 30
0.0
 10
-40.53614305366991
 20
2.01864110202586
 30
0.0
 10
-40.8465362062382
 20
1.9292313256154912
 30
0.0
 10
-41.17679388185734
 20
1.82525690102708
 30
0.0
 10
-41.526374837305575
 20
1.7056931725407538
 30
0.0
 10
-41.89469960957573
 20
1.5695336029625666
 30
0.0
 10
-42.281151087032725
 20
1.4157910296382183
 30
0.0
 10
-42.685075119242285
 20
1.2434989031098316
 30
0.0
 10
-43.10578116481823
 20
1.051712507328054
 30
0.0
 10
-43.19061960433392
 20
1.0104934366780647
 30
0.0
 10
-43.29014452099555
 20
-8.881784197001252e-16
 30
0.0
 10
-43.1906196043339
 20
-1.010493436678063
 30
0.0
 10
-43.10578116481812
 20
-1.0517125073281042
 30
0.0
 10
-42.6850751192424
 20
-1.243498903109785
 30
0.0
 10
-42.281151087032576
 20
-1.4157910296382834
 30
0.0
 10
-41.894699609433864
 20
-1.5695336030190106
 30
0.0
 10
-41.52637483731058
 20
-1.70569317254313
 30
0.0
 10
-41.17679388186872
 20
-1.8252569010218662
 30
0.0
 10
-40.84653620626564
 20
-1.9292313256078726
 30
0.0
 10
-40.53614305367097
 20
-2.0186411020265185
 30
0.0
 10
-40.246116915184935
 20
-2.094527732410569
 30
0.0
 10
-39.97692103707186
 20
-2.1579482781255033
 30
0.0
 10
-39.72897896792982
 20
-2.2099740587612513
 30
0.0
 10
-39.502674146107005
 20
-2.251689338474001
 30
0.0
 10
-39.29834953109531
 20
-2.284190002255707
 30
0.0
 10
-39.11630726296743
 20
-2.3085822074761873
 30
0.0
 10
-38.956808252203835
 20
-2.3259810969647288
 30
0.0
 10
-38.73849066579239
 20
-2.3443874923374532
 30
0.0
 10
-38.56525626713265
 20
-2.3686933977160494
 30
0.0
 10
-38.41668145093927
 20
-2.4023264601710967
 30
0.0
 10
-38.29310522539029
 20
-2.4440880507425704
 30
0.0
 10
-38.19482250492993
 20
-2.4927685898793963
 30
0.0
 10
-38.122083866912114
 20
-2.547149481711808
 30
0.0
 10
-38.07509524517229
 20
-2.606004282632188
 30
0.0
 10
-38.05401772137519
 20
-2.668100246095689
 30
0.0
 10
-38.00938490865479
 20
-3.273172525521838
 30
0.0
 10
-37.91760951760773
 20
-4.20498370821204
 30
0.0
 10
-37.8433409775127
 20
-4.807137123255399
 30
0.0
 10
-37.85189918109021
 20
-4.872151951101606
 30
0.0
 10
-37.88650292757438
 20
-4.939042898874008
 30
0.0
 10
-37.94723472736472
 20
-5.006569481419802
 30
0.0
 10
-38.03413186697066
 20
-5.073488655735283
 30
0.0
 10
-38.14718634205492
 20
-5.1385562939891685
 30
0.0
 10
-38.28634483554786
 20
-5.20052865807467
 30
0.0
 10
-38.451508740857875
 20
-5.25816387436194
 30
0.0
 10
-38.66204061895967
 20
-5.318808279668006
 30
0.0
 10
-38.81508042749296
 20
-5.3669895248170745
 30
0.0
 10
-38.98886612374909
 20
-5.42642773355857
 30
0.0
 10
-39.18292413719115
 20
-5.498165660444669
 30
0.0
 10
-39.39674232796719
 20
-5.583229273319918
 30
0.0
 10
-39.62977053347598
 20
-5.682626491278363
 30
0.0
 10
-39.88142115358851
 20
-5.797345939537204
 30
0.0
 10
-40.151069773988326
 20
-5.928355722348393
 30
0.0
 10
-40.43805582709396
 20
-6.0766022150619765
 30
0.0
 10
-40.741683290107005
 20
-6.243008876521523
 30
0.0
 10
-41.06122141922809
 20
-6.42847508266014
 30
0.0
 10
-41.39590552000394
 20
-6.633874982717168
 30
0.0
 10
-41.744937752546406
 20
-6.860056378785696
 30
0.0
 10
-42.107487971293395
 20
-7.107839629927926
 30
0.0
 10
-42.48269459845956
 20
-7.378016581797825
 30
0.0
 10
-42.55786144938257
 20
-7.434994798047693
 30
0.0
 10
-42.45833653272094
 20
-8.44548823472574
 30
0.0
 10
-42.16358646946918
 20
-9.417148975323514
 30
0.0
 10
-42.07233673501341
 20
-9.441024874604492
 30
0.0
 10
-41.62229876842472
 20
-9.547050470663253
 30
0.0
 10
-41.19252349678692
 20
-9.637230382777908
 30
0.0
 10
-40.7835038878196
 20
-9.712625892512701
 30
0.0
 10
-40.395692958649164
 20
-9.774312595687947
 30
0.0
 10
-40.02950337695212
 20
-9.823379079482164
 30
0.0
 10
-39.68530710600651
 20
-9.860925588372812
 30
0.0
 10
-39.363435088730796
 20
-9.888062680917066
 30
0.0
 10
-39.064176974013165
 20
-9.90590987822681
 30
0.0
 10
-38.78778088452868
 20
-9.915594305392665
 30
0.0
 10
-38.53445322642408
 20
-9.918249327131425
 30
0.0
 10
-38.30435854094383
 20
-9.91501317887838
 30
0.0
 10
-38.097619401153395
 20
-9.90702759658036
 30
0.0
 10
-37.914316340991206
 20
-9.895436427707567
 30
0.0
 10
-37.75448770404235
 20
-9.881384289042165
 30
0.0
 10
-37.536774119236426
 20
-9.856845362454225
 30
0.0
 10
-37.362126524064244
 20
-9.846887882057626
 30
0.0
 10
-37.209845046318414
 20
-9.850889185913767
 30
0.0
 10
-37.080496021139695
 20
-9.867739813596605
 30
0.0
 10
-36.97460467353807
 20
-9.896310962240863
 30
0.0
 10
-36.8926545023545
 20
-9.935456336171384
 30
0.0
 10
-36.8350867517419
 20
-9.984013233248838
 30
0.0
 10
-36.80229990514634
 20
-10.040804019281415
 30
0.0
 10
-36.64048095357091
 20
-10.625542574716507
 30
0.0
 10
-36.36868165723944
 20
-11.521544776221656
 30
0.0
 10
-36.17836586267328
 20
-12.097638908837913
 30
0.0
 10
-36.17407585906845
 20
-12.163074117689236
 30
0.0
 10
-36.194964927726055
 20
-12.235430630701194
 30
0.0
 10
-36.2413560002793
 20
-12.313507895275757
 30
0.0
 10
-36.3135281524477
 20
-12.396094027369122
 30
0.0
 10
-36.411716250994274
 20
-12.481967243148688
 30
0.0
 10
-36.53611064458969
 20
-12.569897300942353
 30
0.0
 10
-36.686856898866715
 20
-12.658646952182137
 30
0.0
 10
-36.88151232940497
 20
-12.759198824138673
 30
0.0
 10
-37.02221182629888
 20
-12.836310865700424
 30
0.0
 10
-37.181062459848086
 20
-12.928510893372025
 30
0.0
 10
-37.357396327719364
 20
-13.036729236440776
 30
0.0
 10
-37.55051097428726
 20
-13.16187223553814
 30
0.0
 10
-37.759670172910056
 20
-13.304821111476366
 30
0.0
 10
-37.984104742818424
 20
-13.466430858217928
 30
0.0
 10
-38.223013399871704
 20
-13.647529160972972
 30
0.0
 10
-38.475563640437485
 20
-13.848915340412375
 30
0.0
 10
-38.74089265771708
 20
-14.071359324065098
 30
0.0
 10
-39.018108289407934
 20
-14.315600645564748
 30
0.0
 10
-39.30628999638968
 20
-14.582347473131014
 30
0.0
 10
-39.60448987106054
 20
-14.8722756677368
 30
0.0
 10
-39.91173367475902
 20
-15.18602787210992
 30
0.0
 10
-40.227021903251696
 20
-15.524212631324563
 30
0.0
 10
-40.28962854565521
 20
-15.59476035227759
 30
0.0
 10
-39.99487848240342
 20
-16.566421092875366
 30
0.0
 10
-39.51623035219448
 20
-17.46190876004529
 30
0.0
 10
-39.42207599892039
 20
-17.4675239505376
 30
0.0
 10
-38.96000081799055
 20
-17.483714242676736
 30
0.0
 10
-38.52089032959306
 20
-17.488316376928463
 30
0.0
 10
-38.105020983448895
 20
-17.482467415860498
 30
0.0
 10
-37.71262725375246
 20
-17.46731066727815
 30
0.0
 10
-37.343901506063375
 20
-17.443994308932435
 30
0.0
 10
-36.99899390944017
 20
-17.413670010847383
 30
0.0
 10
-36.67801238859942
 20
-17.377491556269423
 30
0.0
 10
-36.38102261917291
 20
-17.336613462721072
 30
0.0
 10
-36.10804806503118
 20
-17.292189604232956
 30
0.0
 10
-35.85907005779718
 20
-17.24537183607826
 30
0.0
 10
-35.63402791838393
 20
-17.19730862322193
 30
0.0
 10
-35.43281912301625
 20
-17.14914367629353
 30
0.0
 10
-35.25529950462425
 20
-17.102014575446844
 30
0.0
 10
-35.101283366375135
 20
-17.057051424435883
 30
0.0
 10
-34.89254039414364
 20
-16.99051019307446
 30
0.0
 10
-34.723191211597985
 20
-16.94667198729009
 30
0.0
 10
-34.57305516408905
 20
-16.920887764684085
 30
0.0
 10
-34.442904149778435
 20
-16.91217986930638
 30
0.0
 10
-34.33347352013931
 20
-16.919543654238556
 30
0.0
 10
-34.2454611149104
 20
-16.941949175500014
 30
0.0
 10
-34.17952653179669
 20
-16.97834215441088
 30
0.0
 10
-34.136290342530295
 20
-17.02764532495394
 30
0.0
 10
-33.86350386365974
 20
-17.56957898163776
 30
0.0
 10
-33.422125756575085
 20
-18.395339339837843
 30
0.0
 10
-33.123076436792644
 20
-18.923235215587866
 30
0.0
 10
-33.10610308843815
 20
-18.986576167064637
 30
0.0
 10
-33.11247472407539
 20
-19.061617625099096
 30
0.0
 10
-33.14274228648975
 20
-19.147245106211066
 30
0.0
 10
-33.19741591588737
 20
-19.242324457340803
 30
0.0
 10
-33.27696432433363
 20
-19.345703191121896
 30
0.0
 10
-33.381814211246855
 20
-19.45621183981446
 30
0.0
 10
-33.51234972047849
 20
-19.572665326680987
 30
0.0
 10
-33.68364820442164
 20
-19.709260513238842
 30
0.0
 10
-33.80660038691571
 20
-19.812339978700994
 30
0.0
 10
-33.94441141699515
 20
-19.93375862994565
 30
0.0
 10
-34.096244727642535
 20
-20.074298618962462
 30
0.0
 10
-34.261234542434636
 20
-20.234711829007637
 30
0.0
 10
-34.438486863466174
 20
-20.41571891778999
 30
0.0
 10
-34.62708048851318
 20
-20.61800839107879
 30
0.0
 10
-34.826068056510884
 20
-20.84223570756391
 30
0.0
 10
-35.03447712042366
 20
-21.08902241579195
 30
0.0
 10
-35.25131124663399
 20
-21.35895532409409
 30
0.0
 10
-35.47555113963305
 20
-21.652585703941654
 30
0.0
 10
-35.706155791435535
 20
-21.970428528027135
 30
0.0
 10
-35.9420636542836
 20
-22.312961743245076
 30
0.0
 10
-36.18219383586175
 20
-22.6806255795893
 30
0.0
 10
-36.42544731587565
 20
-23.07382189550826
 30
0.0
 10
-36.47308781160228
 20
-23.155228011811843
 30
0.0
 10
-35.99443968139337
 20
-24.050715678981764
 30
0.0
 10
-35.35028766344222
 20
-24.83561718386976
 30
0.0
 10
-35.25684699034379
 20
-24.822755876951817
 30
0.0
 10
-34.80049188514118
 20
-24.74848868132405
 30
0.0
 10
-34.368920949797115
 20
-24.667336180274454
 30
0.0
 10
-33.96218349222622
 20
-24.58046752069744
 30
0.0
 10
-33.58028643297907
 20
-24.489049785705514
 30
0.0
 10
-33.22319444299786
 20
-24.394246619795126
 30
0.0
 10
-32.8908301262089
 20
-24.29721686050372
 30
0.0
 10
-32.5830742416405
 20
-24.199113176523873
 30
0.0
 10
-32.29976596779038
 20
-24.10108071432779
 30
0.0
 10
-32.040703208021185
 20
-24.004255754154208
 30
0.0
 10
-31.805642936847327
 20
-23.909764376680542
 30
0.0
 10
-31.594301586713627
 20
-23.818721141536834
 30
0.0
 10
-31.406355476935495
 20
-23.7322277818773
 30
0.0
 10
-31.241441279694325
 20
-23.651371893971955
 30
0.0
 10
-31.09915639396464
 20
-23.577225639293157
 30
0.0
 10
-30.907405909666018
 20
-23.471239245362717
 30
0.0
 10
-30.74986313386
 20
-23.395204991854122
 30
0.0
 10
-30.607642160696457
 20
-23.340626116000767
 30
0.0
 10
-30.481690787744373
 20
-23.30669433709844
 30
0.0
 10
-30.372926233795386
 20
-23.292567772193248
 30
0.0
 10
-30.282233861896152
 20
-23.297372409168727
 30
0.0
 10
-30.21046627533385
 20
-23.32020290814287
 30
0.0
 10
-30.15844228590298
 20
-23.360123770001987
 30
0.0
 10
-29.78517131113989
 20
-23.838426321428074
 30
0.0
 10
-29.191176306429618
 20
-24.562211328849195
 30
0.0
 10
-28.79488575908134
 20
-25.021622205275328
 30
0.0
 10
-28.765881342235684
 20
-25.08043474213431
 30
0.0
 10
-28.75749068646828
 20
-25.155277344042744
 30
0.0
 10
-28.770471573294408
 20
-25.245164425613428
 30
0.0
 10
-28.80554560300483
 20
-25.34908314963674
 30
0.0
 10
-28.863397320625456
 20
-25.46599461465561
 30
0.0
 10
-28.94467337850288
 20
-25.594835068851783
 30
0.0
 10
-29.049981736274518
 20
-25.734517149152648
 30
0.0
 10
-29.191340368949916
 20
-25.90190637389587
 30
0.0
 10
-29.291820253623307
 20
-26.026991977208333
 30
0.0
 10
-29.403295679632343
 20
-26.172963201351077
 30
0.0
 10
-29.524793564076756
 20
-26.340423963353775
 30
0.0
 10
-29.655318081037947
 20
-26.529942794645482
 30
0.0
 10
-29.79385181718523
 20
-26.74205209536001
 30
0.0
 10
-29.939356950124843
 20
-26.97724742418279
 30
0.0
 10
-30.090776448422332
 20
-27.235986824373587
 30
0.0
 10
-30.247035292233097
 20
-27.51869018659264
 30
0.0
 10
-30.407041713505865
 20
-27.82573864925828
 30
0.0
 10
-30.569688454480353
 20
-28.157474036626027
 30
0.0
 10
-30.733854043659395
 20
-28.514198335749423
 30
0.0
 10
-30.89840408781408
 20
-28.89617321221354
 30
0.0
 10
-31.062192579060394
 20
-29.303619565486407
 30
0.0
 10
-31.224063215776702
 20
-29.736717124195955
 30
0.0
 10
-31.254906767292724
 20
-29.825853244453608
 30
0.0
 10
-30.61075474934163
 20
-30.61075474934163
 30
0.0
 10
-29.825853244453583
 20
-31.254906767292695
 30
0.0
 10
-29.736717124195838
 20
-31.22406321577666
 30
0.0
 10
-29.30361956548651
 20
-31.06219257906044
 30
0.0
 10
-28.89617321221338
 20
-30.898404087814004
 30
0.0
 10
-28.514198335609194
 20
-30.733854043598985
 30
0.0
 10
-28.157474036627878
 20
-30.56968845448556
 30
0.0
 10
-27.82573864927001
 20
-30.407041713510214
 30
0.0
 10
-27.518690186617427
 20
-30.2470352922471
 30
0.0
 10
-27.235986824373864
 20
-30.090776448423533
 30
0.0
 10
-26.977247424183087
 20
-29.939356950124676
 30
0.0
 10
-26.742052095360282
 20
-29.793851817185036
 30
0.0
 10
-26.52994279464446
 20
-29.655318081037336
 30
0.0
 10
-26.340423963354358
 20
-29.52479356407519
 30
0.0
 10
-26.172963202763153
 20
-29.403295682990198
 30
0.0
 10
-26.026991986787852
 20
-29.291820254453896
 30
0.0
 10
-25.901906281941898
 20
-29.191340295092864
 30
0.0
 10
-25.734517149152833
 20
-29.049981736274308
 30
0.0
 10
-25.594835060609682
 20
-28.94467338876332
 30
0.0
 10
-25.465994634031762
 20
-28.86339729525347
 30
0.0
 10
-25.349083143066416
 20
-28.805545612060573
 30
0.0
 10
-25.24516442561996
 20
-28.770471573285054
 30
0.0
 10
-25.15527734404162
 20
-28.757490686470057
 30
0.0
 10
-25.080434742134596
 20
-28.7658813422354
 30
0.0
 10
-25.02162220527769
 20
-28.7948857590772
 30
0.0
 10
-24.562211328849433
 20
-29.19117630642941
 30
0.0
 10
-23.83842632142831
 20
-29.785171311139685
 30
0.0
 10
-23.3601237700065
 20
-30.158442285901465
 30
0.0
 10
-23.320202908143195
 20
-30.21046627533362
 30
0.0
 10
-23.297372409166755
 20
-30.2822338618969
 30
0.0
 10
-23.292567772203682
 20
-30.3729262337908
 30
0.0
 10
-23.30669432693488
 20
-30.481690792421755
 30
0.0
 10
-23.340626144665325
 20
-30.607642146642434
 30
0.0
 10
-23.39520498018287
 20
-30.74986313994202
 30
0.0
 10
-23.47123924536295
 20
-30.907405909665865
 30
0.0
 10
-23.577225693791725
 20
-31.09915649856053
 30
0.0
 10
-23.651371895026188
 20
-31.24144127013682
 30
0.0
 10
-23.732227778859432
 20
-31.406355474895452
 30
0.0
 10
-23.81872114153847
 20
-31.594301586713346
 30
0.0
 10
-23.909764376680936
 20
-31.80564293684844
 30
0.0
 10
-24.004255754154443
 20
-32.040703208020936
 30
0.0
 10
-24.101080714328
 20
-32.2997659677901
 30
0.0
 10
-24.199113176522737
 20
-32.583074241639984
 30
0.0
 10
-24.297216860494803
 20
-32.89083012618184
 30
0.0
 10
-24.39424661979314
 20
-33.22319444298549
 30
0.0
 10
-24.489049785700754
 20
-33.58028643297623
 30
0.0
 10
-24.58046752072932
 20
-33.962183492375516
 30
0.0
 10
-24.667336180274482
 20
-34.36892094979727
 30
0.0
 10
-24.748488681324023
 20
-34.80049188514106
 30
0.0
 10
-24.822755876951835
 20
-35.256846990343895
 30
0.0
 10
-24.83561718386978
 20
-35.35028766344224
 30
0.0
 10
-24.050715678981756
 20
-35.99443968139334
 30
0.0
 10
-23.155228011811804
 20
-36.47308781160224
 30
0.0
 10
-23.07382189550814
 20
-36.42544731587559
 30
0.0
 10
-22.68062557958938
 20
-36.18219383586182
 30
0.0
 10
-22.312961743244923
 20
-35.942063654283515
 30
0.0
 10
-21.970428527901372
 20
-35.70615579134894
 30
0.0
 10
-21.65258570394244
 20
-35.475551139638526
 30
0.0
 10
-21.35895532410473
 20
-35.251311246640554
 30
0.0
 10
-21.089022415813506
 20
-35.034477120442254
 30
0.0
 10
-20.842235707563926
 20
-34.82606805651213
 30
0.0
 10
-20.618008391079094
 20
-34.62708048851309
 30
0.0
 10
-20.41571891779029
 20
-34.438486863466046
 30
0.0
 10
-20.234711829006738
 20
-34.261234542433854
 30
0.0
 10
-20.074298618963326
 20
-34.09624472764113
 30
0.0
 10
-19.933758630675488
 20
-33.94441142056398
 30
0.0
 10
-19.81233998793439
 20
-33.806600389599225
 30
0.0
 10
-19.709260437460525
 20
-33.6836481140444
 30
0.0
 10
-19.572665326681197
 20
-33.512349720478326
 30
0.0
 10
-19.456211829728993
 20
-33.38181421970219
 30
0.0
 10
-19.34570321507555
 20
-33.27696430322927
 30
0.0
 10
-19.242324449130017
 20
-33.19741592348731
 30
0.0
 10
-19.147245106219277
 20
-33.14274228648186
 30
0.0
 10
-19.06161762509763
 20
-33.11247472407692
 30
0.0
 10
-18.98657616706495
 20
-33.10610308843794
 30
0.0
 10
-18.923235215590967
 20
-33.12307643678905
 30
0.0
 10
-18.3953393398381
 20
-33.422125756574935
 30
0.0
 10
-17.569578981638024
 20
-33.863503863659595
 30
0.0
 10
-17.027645324958648
 20
-34.1362903425297
 30
0.0
 10
-16.978342154411227
 20
-34.17952653179653
 30
0.0
 10
-16.94194917549792
 20
-34.24546111491076
 30
0.0
 10
-16.919543654249676
 20
-34.333473520136856
 30
0.0
 10
-16.912179858425585
 20
-34.442904152383136
 30
0.0
 10
-16.920887795539652
 20
-34.573055155897265
 30
0.0
 10
-16.94667197465654
 20
-34.7231912152862
 30
0.0
 10
-16.9905101930747
 20
-34.892540394143545
 30
0.0
 10
-17.057051457481617
 20
-35.10128347959339
 30
0.0
 10
-17.102014578345383
 20
-35.255299495456065
 30
0.0
 10
-17.14914367373163
 20
-35.432819120426664
 30
0.0
 10
-17.197308623223577
 20
-35.634027918383985
 30
0.0
 10
-17.245371836078412
 20
-35.85907005779836
 30
0.0
 10
-17.292189604233215
 20
-36.108048065031
 30
0.0
 10
-17.336613462721317
 20
-36.38102261917269
 30
0.0
 10
-17.377491556268396
 20
-36.6780123885987
 30
0.0
 10
-17.413670010843898
 20
-36.99899390941191
 30
0.0
 10
-17.44399430893288
 20
-37.34390150605087
 30
0.0
 10
-17.467310667274024
 20
-37.71262725374875
 30
0.0
 10
-17.482467415862622
 20
-38.10502098360156
 30
0.0
 10
-17.488316376928445
 20
-38.52089032959323
 30
0.0
 10
-17.483714242676722
 20
-38.960000817990434
 30
0.0
 10
-17.467523950537576
 20
-39.422075998920505
 30
0.0
 10
-17.461908760045276
 20
-39.51623035219449
 30
0.0
 10
-16.56642109287538
 20
-39.9948784824034
 30
0.0
 10
-15.594760352277602
 20
-40.28962854565518
 30
0.0
 10
-15.524212631324493
 20
-40.227021903251604
 30
0.0
 10
-15.186027872110026
 20
-39.911733674759084
 30
0.0
 10
-14.872275667736702
 20
-39.60448987106041
 30
0.0
 10
-14.5823474730246
 20
-39.306289996280206
 30
0.0
 10
-14.315600645564487
 20
-39.01810828941345
 30
0.0
 10
-14.071359324074288
 20
-38.740892657725595
 30
0.0
 10
-13.848915340429935
 20
-38.47556364045991
 30
0.0
 10
-13.647529160972788
 20
-38.22301339987292
 30
0.0
 10
-13.466430858218287
 20
-37.98410474281838
 30
0.0
 10
-13.304821111476718
 20
-37.75967017290998
 30
0.0
 10
-13.161872235537448
 20
-37.5505109742863
 30
0.0
 10
-13.03672923644193
 20
-37.357396327718135
 30
0.0
 10
-12.928510893391634
 20
-37.18106246349071
 30
0.0
 10
-12.836310874232913
 20
-37.02221183073216
 30
0.0
 10
-12.75919876744817
 20
-36.881512225980686
 30
0.0
 10
-12.658646952182407
 20
-36.686856898866594
 30
0.0
 10
-12.569897289401156
 20
-36.536110650914985
 30
0.0
 10
-12.48196727075937
 20
-36.411716234968544
 30
0.0
 10
-12.396094017833464
 20
-36.31352815829976
 30
0.0
 10
-12.313507895285385
 20
-36.241356000273164
 30
0.0
 10
-12.235430630699488
 20
-36.194964927727256
 30
0.0
 10
-12.163074117689623
 20
-36.17407585906829
 30
0.0
 10
-12.097638908841693
 20
-36.178365862670354
 30
0.0
 10
-11.521544776221974
 20
-36.36868165723934
 30
0.0
 10
-10.625542574716825
 20
-36.6404809535708
 30
0.0
 10
-10.040804019286183
 20
-36.802299905146675
 30
0.0
 10
-9.984013233249245
 20
-36.8350867517418
 30
0.0
 10
-9.935456336169295
 20
-36.89265450235444
 30
0.0
 10
-9.896310962252281
 20
-36.97460467353781
 30
0.0
 10
-9.867739802416764
 20
-37.08049602157161
 30
0.0
 10
-9.850889217774627
 20
-37.20984504430364
 30
0.0
 10
-9.846887868947327
 20
-37.362126525216894
 30
0.0
 10
-9.856845362454516
 20
-37.53677411923636
 30
0.0
 10
-9.881384299365186
 20
-37.75448782153204
 30
0.0
 10
-9.89543643233907
 20
-37.91431633256466
 30
0.0
 10
-9.907027594572924
 20
-38.097619398113764
 30
0.0
 10
-9.915013178880018
 20
-38.3043585409442
 30
0.0
 10
-9.918249327131383
 20
-38.53445322642525
 30
0.0
 10
-9.915594305392995
 20
-38.787780884528544
 30
0.0
 10
-9.90590987822713
 20
-39.064176974012994
 30
0.0
 10
-9.888062680916235
 20
-39.36343508872988
 30
0.0
 10
-9.860925588374949
 20
-39.685307105978104
 30
0.0
 10
-9.823379079485077
 20
-40.02950337693994
 30
0.0
 10
-9.774312595684663
 20
-40.39569295864471
 30
0.0
 10
-9.712625892485038
 20
-40.78350388796974
 30
0.0
 10
-9.637230382777895
 20
-41.192523496787075
 30
0.0
 10
-9.5470504706633
 20
-41.6222987684246
 30
0.0
 10
-9.441024874604487
 20
-42.072336735013515
 30
0.0
 10
-9.417148975323553
 20
-42.16358646946924
 30
0.0
 10
-8.445488234725776
 20
-42.45833653272104
 30
0.0
 10
-7.434994798047699
 20
-42.55786144938259
 30
0.0
 10
-7.378016581797757
 20
-42.48269459845946
 30
0.0
 10
-7.107839629927995
 20
-42.107487971293494
 30
0.0
 10
-6.860056378785607
 20
-41.74493775254627
 30
0.0
 10
-6.633874982634135
 20
-41.39590551987582
 30
0.0
 10
-6.428475082658788
 20
-41.061221419233455
 30
0.0
 10
-6.243008876528857
 20
-40.74168329011715
 30
0.0
 10
-6.076602215074803
 20
-40.43805582711939
 30
0.0
 10
-5.9283557223479555
 20
-40.151069773989484
 30
0.0
 10
-5.797345939537545
 20
-39.88142115358854
 30
0.0
 10
-5.682626491278703
 20
-39.629770533475984
 30
0.0
 10
-5.583229273319407
 20
-39.396742327966116
 30
0.0
 10
-5.498165660446023
 20
-39.18292413719018
 30
0.0
 10
-5.42642773286714
 20
-38.988866127325565
 30
0.0
 10
-5.366989532320703
 20
-38.81508043350567
 30
0.0
 10
-5.318808244243853
 20
-38.662040506462894
 30
0.0
 10
-5.258163874362212
 20
-38.45150874085781
 30
0.0
 10
-5.200528645521212
 20
-38.28634483950004
 30
0.0
 10
-5.138556324195766
 20
-38.1471863317237
 30
0.0
 10
-5.0734886452411505
 20
-38.03413187084997
 30
0.0
 10
-5.006569481430424
 20
-37.94723472736058
 30
0.0
 10
-4.939042898872084
 20
-37.886502927575236
 30
0.0
 10
-4.872151951101997
 20
-37.85189918109013
 30
0.0
 10
-4.8071371232596585
 20
-37.84334097751058
 30
0.0
 10
-4.204983708212353
 20
-37.9176095176077
 30
0.0
 10
-3.273172525522152
 20
-38.00938490865476
 30
0.0
 10
-2.6681002461002827
 20
-38.05401772137644
 30
0.0
 10
-2.606004282632586
 20
-38.075095245172285
 30
0.0
 10
-2.5471494817097553
 20
-38.12208386691165
 30
0.0
 10
-2.4927685898906238
 20
-38.19482250493192
 30
0.0
 10
-2.4440880396932663
 20
-38.293105223632836
 30
0.0
 10
-2.4023264918128047
 20
-38.41668145517897
 30
0.0
 10
-2.368693384632772
 20
-38.56525626570547
 30
0.0
 10
-2.3443874923377317
 20
-38.7384906657924
 30
0.0
 10
-2.325981084168275
 20
-38.956808369449924
 30
0.0
 10
-2.3085822136626155
 20
-39.11630725560637
 30
0.0
 10
-2.284190000879829
 20
-39.29834952772246
 30
0.0
 10
-2.2516893384755186
 20
-39.502674146107694
 30
0.0
 10
-2.20997405876096
 20
-39.72897896793097
 30
0.0
 10
-2.157948278125837
 20
-39.9769210370718
 30
0.0
 10
-2.094527732410897
 20
-40.246116915184835
 30
0.0
 10
-2.0186411020258626
 20
-40.53614305366991
 30
0.0
 10
-1.9292313256154936
 20
-40.8465362062382
 30
0.0
 10
-1.8252569010270825
 20
-41.17679388185734
 30
0.0
 10
-1.7056931725407563
 20
-41.526374837305575
 30
0.0
 10
-1.5695336029625693
 20
-41.89469960957573
 30
0.0
 10
-1.415791029638221
 20
-42.281151087032725
 30
0.0
 10
-1.243498903109834
 20
-42.685075119242285
 30
0.0
 10
-1.0517125073280567
 20
-43.10578116481823
 30
0.0
 10
-1.0104934366780673
 20
-43.19061960433392
 30
0.0
 10
-2.6645352591003757e-15
 20
-43.29014452099555
 30
0.0
 10
1.0104934366780594
 20
-43.1906196043339
 30
0.0
 10
1.0517125073281024
 20
-43.10578116481812
 30
0.0
 10
1.2434989031097832
 20
-42.68507511924239
 30
0.0
 10
1.4157910296382799
 20
-42.281151087032576
 30
0.0
 10
1.5695336030190088
 20
-41.894699609433864
 30
0.0
 10
1.7056931725431264
 20
-41.52637483731058
 30
0.0
 10
1.8252569010218636
 20
-41.17679388186872
 30
0.0
 10
1.9292313256078708
 20
-40.84653620626564
 30
0.0
 10
2.0186411020265167
 20
-40.53614305367097
 30
0.0
 10
2.094527732410567
 20
-40.246116915184935
 30
0.0
 10
2.1579482781255006
 20
-39.97692103707186
 30
0.0
 10
2.2099740587612486
 20
-39.72897896792982
 30
0.0
 10
2.2516893384739984
 20
-39.502674146107005
 30
0.0
 10
2.2841900022557042
 20
-39.29834953109531
 30
0.0
 10
2.3085822074761846
 20
-39.11630726296743
 30
0.0
 10
2.325981096964727
 20
-38.956808252203835
 30
0.0
 10
2.3443874923374506
 20
-38.73849066579239
 30
0.0
 10
2.3686933977160476
 20
-38.56525626713265
 30
0.0
 10
2.402326460171094
 20
-38.41668145093927
 30
0.0
 10
2.4440880507425686
 20
-38.29310522539029
 30
0.0
 10
2.4927685898793936
 20
-38.19482250492993
 30
0.0
 10
2.547149481711806
 20
-38.122083866912114
 30
0.0
 10
2.606004282632185
 20
-38.07509524517229
 30
0.0
 10
2.6681002460956864
 20
-38.05401772137519
 30
0.0
 10
3.273172525521836
 20
-38.00938490865479
 30
0.0
 10
4.204983708212038
 20
-37.91760951760773
 30
0.0
 10
4.807137123255396
 20
-37.8433409775127
 30
0.0
 10
4.872151951101604
 20
-37.85189918109021
 30
0.0
 10
4.939042898874006
 20
-37.88650292757438
 30
0.0
 10
5.0065694814198
 20
-37.94723472736472
 30
0.0
 10
5.07348865573528
 20
-38.03413186697066
 30
0.0
 10
5.138556293989166
 20
-38.14718634205492
 30
0.0
 10
5.200528658074668
 20
-38.28634483554786
 30
0.0
 10
5.258163874361938
 20
-38.451508740857875
 30
0.0
 10
5.318808279668004
 20
-38.66204061895967
 30
0.0
 10
5.366989524817073
 20
-38.81508042749296
 30
0.0
 10
5.426427733558568
 20
-38.98886612374909
 30
0.0
 10
5.498165660444667
 20
-39.18292413719115
 30
0.0
 10
5.583229273319916
 20
-39.39674232796719
 30
0.0
 10
5.682626491278361
 20
-39.62977053347598
 30
0.0
 10
5.797345939537201
 20
-39.88142115358851
 30
0.0
 10
5.928355722348391
 20
-40.151069773988326
 30
0.0
 10
6.076602215061974
 20
-40.43805582709396
 30
0.0
 10
6.243008876521521
 20
-40.741683290107005
 30
0.0
 10
6.428475082660138
 20
-41.06122141922809
 30
0.0
 10
6.633874982717166
 20
-41.39590552000394
 30
0.0
 10
6.8600563787856945
 20
-41.744937752546406
 30
0.0
 10
7.1078396299279225
 20
-42.107487971293395
 30
0.0
 10
7.378016581797823
 20
-42.48269459845956
 30
0.0
 10
7.434994798047692
 20
-42.55786144938257
 30
0.0
 10
8.445488234725754
 20
-42.45833653272094
 30
0.0
 10
9.41714897532353
 20
-42.16358646946918
 30
0.0
 10
9.441024874604508
 20
-42.0723367350134
 30
0.0
 10
9.547050470663267
 20
-41.62229876842471
 30
0.0
 10
9.637230382777924
 20
-41.19252349678691
 30
0.0
 10
9.712625892512714
 20
-40.78350388781959
 30
0.0
 10
9.774312595687961
 20
-40.39569295864915
 30
0.0
 10
9.823379079482176
 20
-40.029503376952114
 30
0.0
 10
9.860925588372824
 20
-39.68530710600651
 30
0.0
 10
9.888062680917079
 20
-39.36343508873079
 30
0.0
 10
9.905909878226824
 20
-39.064176974013165
 30
0.0
 10
9.915594305392679
 20
-38.78778088452868
 30
0.0
 10
9.918249327131441
 20
-38.53445322642407
 30
0.0
 10
9.915013178878395
 20
-38.304358540943824
 30
0.0
 10
9.907027596580374
 20
-38.09761940115339
 30
0.0
 10
9.895436427707581
 20
-37.914316340991206
 30
0.0
 10
9.881384289042181
 20
-37.75448770404234
 30
0.0
 10
9.856845362454237
 20
-37.53677411923642
 30
0.0
 10
9.846887882057638
 20
-37.36212652406424
 30
0.0
 10
9.850889185913779
 20
-37.20984504631841
 30
0.0
 10
9.86773981359662
 20
-37.08049602113969
 30
0.0
 10
9.896310962240877
 20
-36.97460467353806
 30
0.0
 10
9.935456336171397
 20
-36.892654502354496
 30
0.0
 10
9.98401323324885
 20
-36.83508675174188
 30
0.0
 10
10.04080401928143
 20
-36.802299905146334
 30
0.0
 10
10.62554257471652
 20
-36.6404809535709
 30
0.0
 10
11.521544776221669
 20
-36.368681657239435
 30
0.0
 10
12.097638908837926
 20
-36.17836586267328
 30
0.0
 10
12.16307411768925
 20
-36.174075859068445
 30
0.0
 10
12.235430630701206
 20
-36.19496492772605
 30
0.0
 10
12.31350789527577
 20
-36.2413560002793
 30
0.0
 10
12.396094027369134
 20
-36.313528152447695
 30
0.0
 10
12.4819672431487
 20
-36.41171625099426
 30
0.0
 10
12.569897300942367
 20
-36.53611064458969
 30
0.0
 10
12.658646952182151
 20
-36.68685689886671
 30
0.0
 10
12.759198824138688
 20
-36.88151232940496
 30
0.0
 10
12.836310865700439
 20
-37.02221182629887
 30
0.0
 10
12.928510893372039
 20
-37.18106245984808
 30
0.0
 10
13.03672923644079
 20
-37.35739632771936
 30
0.0
 10
13.161872235538153
 20
-37.550510974287256
 30
0.0
 10
13.304821111476382
 20
-37.75967017291004
 30
0.0
 10
13.466430858217942
 20
-37.98410474281842
 30
0.0
 10
13.647529160972987
 20
-38.2230133998717
 30
0.0
 10
13.848915340412391
 20
-38.47556364043748
 30
0.0
 10
14.071359324065114
 20
-38.740892657717076
 30
0.0
 10
14.315600645564762
 20
-39.01810828940792
 30
0.0
 10
14.58234747313103
 20
-39.306289996389665
 30
0.0
 10
14.872275667736815
 20
-39.60448987106053
 30
0.0
 10
15.186027872109936
 20
-39.911733674759006
 30
0.0
 10
15.524212631324577
 20
-40.22702190325169
 30
0.0
 10
15.594760352277595
 20
-40.28962854565517
 30
0.0
 10
16.56642109287533
 20
-39.994878482403394
 30
0.0
 10
17.46190876004527
 20
-39.51623035219448
 30
0.0
 10
17.467523950537576
 20
-39.42207599892039
 30
0.0
 10
17.48371424267672
 20
-38.960000817990554
 30
0.0
 10
17.48831637692844
 20
-38.520890329593065
 30
0.0
 10
17.48246741586048
 20
-38.105020983448895
 30
0.0
 10
17.467310667278127
 20
-37.71262725375246
 30
0.0
 10
17.443994308932414
 20
-37.343901506063375
 30
0.0
 10
17.41367001084736
 20
-36.99899390944019
 30
0.0
 10
17.377491556269405
 20
-36.678012388599434
 30
0.0
 10
17.336613462721054
 20
-36.38102261917292
 30
0.0
 10
17.292189604232934
 20
-36.108048065031184
 30
0.0
 10
17.24537183607824
 20
-35.85907005779719
 30
0.0
 10
17.19730862322191
 20
-35.634027918383936
 30
0.0
 10
17.14914367629351
 20
-35.43281912301626
 30
0.0
 10
17.102014575446827
 20
-35.255299504624254
 30
0.0
 10
17.057051424435866
 20
-35.10128336637515
 30
0.0
 10
16.99051019307444
 20
-34.892540394143644
 30
0.0
 10
16.94667198729007
 20
-34.72319121159799
 30
0.0
 10
16.920887764684068
 20
-34.573055164089055
 30
0.0
 10
16.912179869306364
 20
-34.442904149778435
 30
0.0
 10
16.91954365423854
 20
-34.33347352013932
 30
0.0
 10
16.941949175499996
 20
-34.245461114910405
 30
0.0
 10
16.978342154410864
 20
-34.17952653179669
 30
0.0
 10
17.027645324953923
 20
-34.136290342530295
 30
0.0
 10
17.569578981637747
 20
-33.863503863659744
 30
0.0
 10
18.39533933983782
 20
-33.42212575657509
 30
0.0
 10
18.923235215587844
 20
-33.12307643679265
 30
0.0
 10
18.98657616706462
 20
-33.106103088438154
 30
0.0
 10
19.06161762509908
 20
-33.1124747240754
 30
0.0
 10
19.14724510621105
 20
-33.14274228648976
 30
0.0
 10
19.242324457340786
 20
-33.197415915887376
 30
0.0
 10
19.345703191121878
 20
-33.27696432433365
 30
0.0
 10
19.45621183981444
 20
-33.381814211246855
 30
0.0
 10
19.57266532668097
 20
-33.5123497204785
 30
0.0
 10
19.709260513238828
 20
-33.68364820442164
 30
0.0
 10
19.812339978700976
 20
-33.80660038691572
 30
0.0
 10
19.933758629945633
 20
-33.944411416995166
 30
0.0
 10
20.074298618962445
 20
-34.09624472764254
 30
0.0
 10
20.23471182900762
 20
-34.26123454243464
 30
0.0
 10
20.415718917789974
 20
-34.43848686346618
 30
0.0
 10
20.61800839107877
 20
-34.627080488513194
 30
0.0
 10
20.84223570756389
 20
-34.82606805651089
 30
0.0
 10
21.089022415791927
 20
-35.034477120423674
 30
0.0
 10
21.358955324094072
 20
-35.251311246634
 30
0.0
 10
21.652585703941636
 20
-35.475551139633055
 30
0.0
 10
21.970428528027114
 20
-35.70615579143554
 30
0.0
 10
22.312961743245058
 20
-35.942063654283615
 30
0.0
 10
22.68062557958928
 20
-36.18219383586176
 30
0.0
 10
23.07382189550824
 20
-36.42544731587566
 30
0.0
 10
23.15522801181183
 20
-36.473087811602284
 30
0.0
 10
24.050715678981803
 20
-35.994439681393345
 30
0.0
 10
24.835617183869783
 20
-35.3502876634422
 30
0.0
 10
24.822755876951845
 20
-35.25684699034376
 30
0.0
 10
24.748488681324076
 20
-34.800491885141156
 30
0.0
 10
24.66733618027448
 20
-34.368920949797094
 30
0.0
 10
24.580467520697468
 20
-33.96218349222619
 30
0.0
 10
24.48904978570554
 20
-33.58028643297905
 30
0.0
 10
24.394246619795155
 20
-33.22319444299783
 30
0.0
 10
24.297216860503745
 20
-32.890830126208876
 30
0.0
 10
24.1991131765239
 20
-32.583074241640475
 30
0.0
 10
24.101080714327814
 20
-32.29976596779036
 30
0.0
 10
24.004255754154233
 20
-32.04070320802116
 30
0.0
 10
23.90976437668057
 20
-31.805642936847303
 30
0.0
 10
23.81872114153686
 20
-31.594301586713602
 30
0.0
 10
23.732227781877324
 20
-31.40635547693547
 30
0.0
 10
23.65137189397198
 20
-31.241441279694303
 30
0.0
 10
23.577225639293182
 20
-31.09915639396462
 30
0.0
 10
23.471239245362742
 20
-30.907405909665993
 30
0.0
 10
23.395204991854147
 20
-30.74986313385998
 30
0.0
 10
23.34062611600079
 20
-30.607642160696432
 30
0.0
 10
23.30669433709846
 20
-30.481690787744352
 30
0.0
 10
23.292567772193273
 20
-30.372926233795365
 30
0.0
 10
23.297372409168748
 20
-30.28223386189613
 30
0.0
 10
23.320202908142896
 20
-30.21046627533383
 30
0.0
 10
23.360123770002012
 20
-30.158442285902957
 30
0.0
 10
23.8384263214281
 20
-29.78517131113987
 30
0.0
 10
24.56221132884922
 20
-29.191176306429593
 30
0.0
 10
25.02162220527535
 20
-28.794885759081318
 30
0.0
 10
25.080434742134333
 20
-28.76588134223566
 30
0.0
 10
25.155277344042766
 20
-28.757490686468255
 30
0.0
 10
25.24516442561345
 20
-28.770471573294383
 30
0.0
 10
25.349083149636762
 20
-28.805545603004806
 30
0.0
 10
25.46599461465563
 20
-28.86339732062543
 30
0.0
 10
25.594835068851808
 20
-28.944673378502856
 30
0.0
 10
25.734517149152673
 20
-29.049981736274493
 30
0.0
 10
25.901906373895894
 20
-29.191340368949895
 30
0.0
 10
26.026991977208358
 20
-29.291820253623282
 30
0.0
 10
26.172963201351102
 20
-29.40329567963232
 30
0.0
 10
26.340423963353796
 20
-29.524793564076727
 30
0.0
 10
26.52994279464551
 20
-29.655318081037926
 30
0.0
 10
26.74205209536003
 20
-29.793851817185207
 30
0.0
 10
26.977247424182814
 20
-29.939356950124818
 30
0.0
 10
27.235986824373615
 20
-30.090776448422307
 30
0.0
 10
27.518690186592668
 20
-30.24703529223307
 30
0.0
 10
27.825738649258305
 20
-30.407041713505837
 30
0.0
 10
28.15747403662605
 20
-30.569688454480325
 30
0.0
 10
28.514198335749448
 20
-30.73385404365937
 30
0.0
 10
28.896173212213565
 20
-30.89840408781405
 30
0.0
 10
29.30361956548643
 20
-31.062192579060365
 30
0.0
 10
29.736717124195984
 20
-31.224063215776674
 30
0.0
 10
29.825853244453636
 20
-31.254906767292706
 30
0.0
 10
30.610754749341634
 20
-30.610754749341634
 30
0.0
 10
31.254906767292695
 20
-29.825853244453583
 30
0.0
 10
31.22406321577666
 20
-29.736717124195838
 30
0.0
 10
31.06219257906044
 20
-29.30361956548651
 30
0.0
 10
30.898404087814004
 20
-28.89617321221338
 30
0.0
 10
30.733854043598985
 20
-28.514198335609194
 30
0.0
 10
30.56968845448556
 20
-28.157474036627878
 30
0.0
 10
30.407041713510214
 20
-27.82573864927001
 30
0.0
 10
30.2470352922471
 20
-27.518690186617427
 30
0.0
 10
30.090776448423533
 20
-27.235986824373864
 30
0.0
 10
29.939356950124676
 20
-26.977247424183087
 30
0.0
 10
29.793851817185036
 20
-26.742052095360282
 30
0.0
 10
29.655318081037336
 20
-26.52994279464446
 30
0.0
 10
29.52479356407519
 20
-26.340423963354358
 30
0.0
 10
29.403295682990198
 20
-26.172963202763153
 30
0.0
 10
29.291820254453896
 20
-26.026991986787852
 30
0.0
 10
29.191340295092864
 20
-25.901906281941898
 30
0.0
 10
29.049981736274308
 20
-25.734517149152833
 30
0.0
 10
28.94467338876332
 20
-25.594835060609682
 30
0.0
 10
28.86339729525347
 20
-25.465994634031762
 30
0.0
 10
28.805545612060573
 20
-25.349083143066416
 30
0.0
 10
28.770471573285054
 20
-25.24516442561996
 30
0.0
 10
28.757490686470057
 20
-25.15527734404162
 30
0.0
 10
28.7658813422354
 20
-25.080434742134596
 30
0.0
 10
28.7948857590772
 20
-25.02162220527769
 30
0.0
 10
29.19117630642941
 20
-24.562211328849433
 30
0.0
 10
29.785171311139685
 20
-23.83842632142831
 30
0.0
 10
30.158442285901465
 20
-23.3601237700065
 30
0.0
 10
30.21046627533362
 20
-23.320202908143195
 30
0.0
 10
30.2822338618969
 20
-23.297372409166755
 30
0.0
 10
30.3729262337908
 20
-23.292567772203682
 30
0.0
 10
30.481690792421755
 20
-23.30669432693488
 30
0.0
 10
30.607642146642434
 20
-23.340626144665325
 30
0.0
 10
30.74986313994202
 20
-23.39520498018287
 30
0.0
 10
30.907405909665865
 20
-23.47123924536295
 30
0.0
 10
31.09915649856053
 20
-23.577225693791725
 30
0.0
 10
31.24144127013682
 20
-23.651371895026188
 30
0.0
 10
31.406355474895452
 20
-23.732227778859432
 30
0.0
 10
31.594301586713346
 20
-23.81872114153847
 30
0.0
 10
31.80564293684844
 20
-23.909764376680936
 30
0.0
 10
32.040703208020936
 20
-24.004255754154443
 30
0.0
 10
32.2997659677901
 20
-24.101080714328
 30
0.0
 10
32.583074241639984
 20
-24.199113176522737
 30
0.0
 10
32.89083012618184
 20
-24.297216860494803
 30
0.0
 10
33.22319444298549
 20
-24.39424661979314
 30
0.0
 10
33.58028643297623
 20
-24.489049785700754
 30
0.0
 10
33.962183492375516
 20
-24.58046752072932
 30
0.0
 10
34.36892094979727
 20
-24.667336180274482
 30
0.0
 10
34.80049188514106
 20
-24.748488681324023
 30
0.0
 10
35.256846990343895
 20
-24.822755876951835
 30
0.0
 10
35.35028766344224
 20
-24.83561718386978
 30
0.0
 10
35.99443968139334
 20
-24.05071567898176
 30
0.0
 10
36.47308781160224
 20
-23.155228011811804
 30
0.0
 10
36.42544731587559
 20
-23.073821895508143
 30
0.0
 10
36.18219383586182
 20
-22.680625579589382
 30
0.0
 10
35.942063654283515
 20
-22.312961743244923
 30
0.0
 10
35.70615579134894
 20
-21.970428527901372
 30
0.0
 10
35.475551139638526
 20
-21.652585703942442
 30
0.0
 10
35.251311246640554
 20
-21.358955324104734
 30
0.0
 10
35.034477120442254
 20
-21.08902241581351
 30
0.0
 10
34.82606805651213
 20
-20.84223570756393
 30
0.0
 10
34.62708048851309
 20
-20.618008391079098
 30
0.0
 10
34.438486863466046
 20
-20.41571891779029
 30
0.0
 10
34.261234542433854
 20
-20.23471182900674
 30
0.0
 10
34.09624472764113
 20
-20.07429861896333
 30
0.0
 10
33.94441142056398
 20
-19.93375863067549
 30
0.0
 10
33.806600389599225
 20
-19.81233998793439
 30
0.0
 10
33.6836481140444
 20
-19.70926043746053
 30
0.0
 10
33.512349720478326
 20
-19.5726653266812
 30
0.0
 10
33.38181421970219
 20
-19.456211829728996
 30
0.0
 10
33.27696430322927
 20
-19.34570321507555
 30
0.0
 10
33.19741592348731
 20
-19.24232444913002
 30
0.0
 10
33.14274228648186
 20
-19.14724510621928
 30
0.0
 10
33.11247472407692
 20
-19.06161762509763
 30
0.0
 10
33.10610308843793
 20
-18.986576167064953
 30
0.0
 10
33.12307643678905
 20
-18.92323521559097
 30
0.0
 10
33.422125756574935
 20
-18.395339339838102
 30
0.0
 10
33.863503863659595
 20
-17.569578981638028
 30
0.0
 10
34.1362903425297
 20
-17.02764532495865
 30
0.0
 10
34.17952653179653
 20
-16.97834215441123
 30
0.0
 10
34.24546111491076
 20
-16.941949175497925
 30
0.0
 10
34.333473520136856
 20
-16.919543654249676
 30
0.0
 10
34.442904152383136
 20
-16.91217985842559
 30
0.0
 10
34.573055155897265
 20
-16.920887795539656
 30
0.0
 10
34.7231912152862
 20
-16.946671974656542
 30
0.0
 10
34.892540394143545
 20
-16.9905101930747
 30
0.0
 10
35.10128347959339
 20
-17.057051457481617
 30
0.0
 10
35.255299495456065
 20
-17.102014578345383
 30
0.0
 10
35.432819120426664
 20
-17.149143673731633
 30
0.0
 10
35.634027918383985
 20
-17.197308623223577
 30
0.0
 10
35.85907005779836
 20
-17.245371836078416
 30
0.0
 10
36.108048065031
 20
-17.29218960423322
 30
0.0
 10
36.38102261917269
 20
-17.33661346272132
 30
0.0
 10
36.6780123885987
 20
-17.3774915562684
 30
0.0
 10
36.99899390941191
 20
-17.4136700108439
 30
0.0
 10
37.34390150605087
 20
-17.44399430893288
 30
0.0
 10
37.71262725374875
 20
-17.467310667274024
 30
0.0
 10
38.10502098360156
 20
-17.482467415862626
 30
0.0
 10
38.52089032959323
 20
-17.488316376928445
 30
0.0
 10
38.960000817990434
 20
-17.483714242676726
 30
0.0
 10
39.422075998920505
 20
-17.46752395053758
 30
0.0
 10
39.51623035219448
 20
-17.461908760045272
 30
0.0
 10
39.994878482403415
 20
-16.56642109287538
 30
0.0
 10
40.289628545655205
 20
-15.594760352277612
 30
0.0
 10
40.227021903251604
 20
-15.524212631324497
 30
0.0
 10
39.911733674759084
 20
-15.18602787211003
 30
0.0
 10
39.60448987106041
 20
-14.872275667736703
 30
0.0
 10
39.3062899962802
 20
-14.582347473024601
 30
0.0
 10
39.01810828941345
 20
-14.315600645564489
 30
0.0
 10
38.740892657725595
 20
-14.07135932407429
 30
0.0
 10
38.47556364045991
 20
-13.848915340429938
 30
0.0
 10
38.22301339987292
 20
-13.64752916097279
 30
0.0
 10
37.98410474281838
 20
-13.46643085821829
 30
0.0
 10
37.75967017290998
 20
-13.304821111476722
 30
0.0
 10
37.5505109742863
 20
-13.16187223553745
 30
0.0
 10
37.357396327718135
 20
-13.036729236441934
 30
0.0
 10
37.18106246349071
 20
-12.928510893391634
 30
0.0
 10
37.02221183073216
 20
-12.836310874232916
 30
0.0
 10
36.881512225980686
 20
-12.759198767448174
 30
0.0
 10
36.686856898866594
 20
-12.65864695218241
 30
0.0
 10
36.536110650914985
 20
-12.569897289401158
 30
0.0
 10
36.411716234968544
 20
-12.481967270759371
 30
0.0
 10
36.31352815829976
 20
-12.396094017833464
 30
0.0
 10
36.241356000273164
 20
-12.313507895285385
 30
0.0
 10
36.194964927727256
 20
-12.235430630699492
 30
0.0
 10
36.17407585906829
 20
-12.163074117689623
 30
0.0
 10
36.178365862670354
 20
-12.097638908841693
 30
0.0
 10
36.36868165723934
 20
-11.521544776221974
 30
0.0
 10
36.6404809535708
 20
-10.625542574716828
 30
0.0
 10
36.802299905146675
 20
-10.040804019286186
 30
0.0
 10
36.8350867517418
 20
-9.984013233249247
 30
0.0
 10
36.89265450235444
 20
-9.935456336169299
 30
0.0
 10
36.97460467353781
 20
-9.896310962252283
 30
0.0
 10
37.08049602157161
 20
-9.867739802416766
 30
0.0
 10
37.20984504430364
 20
-9.850889217774629
 30
0.0
 10
37.362126525216894
 20
-9.846887868947329
 30
0.0
 10
37.53677411923636
 20
-9.856845362454516
 30
0.0
 10
37.75448782153204
 20
-9.88138429936519
 30
0.0
 10
37.91431633256466
 20
-9.895436432339071
 30
0.0
 10
38.097619398113764
 20
-9.907027594572925
 30
0.0
 10
38.3043585409442
 20
-9.915013178880022
 30
0.0
 10
38.53445322642525
 20
-9.918249327131385
 30
0.0
 10
38.787780884528544
 20
-9.915594305392998
 30
0.0
 10
39.064176974012994
 20
-9.905909878227131
 30
0.0
 10
39.36343508872988
 20
-9.888062680916237
 30
0.0
 10
39.685307105978104
 20
-9.860925588374952
 30
0.0
 10
40.02950337693994
 20
-9.823379079485079
 30
0.0
 10
40.39569295864471
 20
-9.774312595684664
 30
0.0
 10
40.78350388796974
 20
-9.712625892485041
 30
0.0
 10
41.192523496787075
 20
-9.637230382777899
 30
0.0
 10
41.6222987684246
 20
-9.547050470663303
 30
0.0
 10
42.072336735013515
 20
-9.44102487460449
 30
0.0
 10
42.16358646946919
 20
-9.41714897532354
 30
0.0
  0
ENDSEC
  0
EOF
