999
DXF generated by OpenJsCad
  0
SECTION
  2
HEADER
  0
ENDSEC
  0
SECTION
  2
TABLES
  0
TABLE
  2
LTYPE
  70
1
  0
LTYPE
  2
CONTINUOUS
  3
Solid Line
  72
65
  73
0
  40
0.0
  0
ENDTAB
  0
TABLE
  2
LAYER
  70
1
  0
LAYER
  2
OpenJsCad
  62
7
  6
continuous
  0
ENDTAB
  0
TABLE
  2
STYLE
  70
0
  0
ENDTAB
  0
TABLE
  2
VIEW
  70
0
  0
ENDTAB
  0
ENDSEC
  0
SECTION
  2
BLOCKS
  0
ENDSEC
  0
SECTION
  2
ENTITIES
  0
LWPOLYLINE
  8
OpenJsCad
  90
313
  70
1
 10
8.424188086030547
 20
-9.478315726485583
 30
0.0
 10
9.003163161571061
 20
-9.003163161571063
 30
0.0
 10
9.478315726485594
 20
-8.424188086030536
 30
0.0
 10
9.38561915072017
 20
-7.854588611756943
 30
0.0
 10
9.207728009675908
 20
-7.184531858387309
 30
0.0
 10
8.997563767825172
 20
-6.622220979032939
 30
0.0
 10
8.77422167235334
 20
-6.166690938203567
 30
0.0
 10
8.556216289408265
 20
-5.814305790745067
 30
0.0
 10
8.361145607719624
 20
-5.558870963358584
 30
0.0
 10
8.20537230153427
 20
-5.391785251670996
 30
0.0
 10
8.18257389549134
 20
-5.3716986757948515
 30
0.0
 10
8.15457578724821
 20
-5.365102529835243
 30
0.0
 10
8.152626757317673
 20
-5.345313696859661
 30
0.0
 10
8.12640333628813
 20
-5.322209505485487
 30
0.0
 10
7.589437268456651
 20
-5.138556293855627
 30
0.0
 10
7.147242600471209
 20
-4.862522952139514
 30
0.0
 10
6.8313064013407985
 20
-4.558875575477508
 30
0.0
 10
6.641848524060628
 20
-4.249568125955838
 30
0.0
 10
6.5760191250386715
 20
-3.9562407602234857
 30
0.0
 10
6.627971126597291
 20
-3.6998317046520093
 30
0.0
 10
6.86904409591761
 20
-3.248815901413274
 30
0.0
 10
7.154407415208667
 20
-2.559887905776713
 30
0.0
 10
7.302859416733968
 20
-2.0705072415158723
 30
0.0
 10
7.447432386087932
 20
-1.8524630469665608
 30
0.0
 10
7.701394569954726
 20
-1.6915976919994968
 30
0.0
 10
8.054074914756857
 20
-1.6068512467458627
 30
0.0
 10
8.492186662662329
 20
-1.6155407565774416
 30
0.0
 10
9.000050558871855
 20
-1.7330345568947638
 30
0.0
 10
9.5096053379705
 20
-1.9828644735219285
 30
0.0
 10
9.5444852272011
 20
-1.985070101963331
 30
0.0
 10
9.559856217470458
 20
-1.9724554562552272
 30
0.0
 10
9.584318049207205
 20
-1.987588928916511
 30
0.0
 10
9.614642310733332
 20
-1.989506482416878
 30
0.0
 10
9.842938111638457
 20
-1.981507403769749
 30
0.0
 10
10.161493612080854
 20
-1.9388235070082604
 30
0.0
 10
10.564820624040125
 20
-1.843802664269753
 30
0.0
 10
11.044855715177405
 20
-1.6796209935976292
 30
0.0
 10
11.5910781116796
 20
-1.4306157182466916
 30
0.0
 10
12.190667817912516
 20
-1.0826020763045971
 30
0.0
 10
12.658981846048176
 20
-0.7453808028019402
 30
0.0
 10
12.732395447351628
 20
-1.8849008925965003e-15
 30
0.0
 10
12.658981846048176
 20
0.7453808028019456
 30
0.0
 10
12.190667817912523
 20
1.0826020763045923
 30
0.0
 10
11.5910781116796
 20
1.4306157182466916
 30
0.0
 10
11.044855715177572
 20
1.6796209935975523
 30
0.0
 10
10.564820624040394
 20
1.8438026642696392
 30
0.0
 10
10.161493612067432
 20
1.938823507011335
 30
0.0
 10
9.842938111638514
 20
1.9815074037748117
 30
0.0
 10
9.614642310733329
 20
1.9895064824169737
 30
0.0
 10
9.58431804920729
 20
1.9875889289166122
 30
0.0
 10
9.55985621747044
 20
1.9724554562552357
 30
0.0
 10
9.544485227201024
 20
1.9850701019634212
 30
0.0
 10
9.509605337970616
 20
1.9828644735220307
 30
0.0
 10
9.000050558809734
 20
1.733034557021477
 30
0.0
 10
8.492186662711646
 20
1.6155407564454851
 30
0.0
 10
8.05407491475702
 20
1.6068512467452791
 30
0.0
 10
7.701394569954714
 20
1.6915976919995508
 30
0.0
 10
7.447432386087922
 20
1.8524630469666223
 30
0.0
 10
7.302859416734005
 20
2.0705072415171655
 30
0.0
 10
7.154407415208771
 20
2.5598879057767467
 30
0.0
 10
6.869044095917512
 20
3.2488159014132245
 30
0.0
 10
6.627971126596351
 20
3.699831704652898
 30
0.0
 10
6.576019125038636
 20
3.956240760223537
 30
0.0
 10
6.6418485240606
 20
4.249568125955884
 30
0.0
 10
6.831306401341097
 20
4.558875575476979
 30
0.0
 10
7.147242600529644
 20
4.862522952011333
 30
0.0
 10
7.589437268410978
 20
5.138556293989154
 30
0.0
 10
8.12640333628798
 20
5.322209505485481
 30
0.0
 10
8.15262675731767
 20
5.345313696859782
 30
0.0
 10
8.154575787248216
 20
5.365102529835262
 30
0.0
 10
8.18257389549121
 20
5.371698675794866
 30
0.0
 10
8.205372301534208
 20
5.391785251671068
 30
0.0
 10
8.361145607716004
 20
5.558870963362123
 30
0.0
 10
8.556216289415582
 20
5.814305790756732
 30
0.0
 10
8.774221672353232
 20
6.166690938203299
 30
0.0
 10
8.99756376782511
 20
6.622220979032768
 30
0.0
 10
9.207728009675908
 20
7.184531858387309
 30
0.0
 10
9.38561915072017
 20
7.854588611756935
 30
0.0
 10
9.47831572648559
 20
8.42418808603054
 30
0.0
 10
9.003163161571063
 20
9.003163161571061
 30
0.0
 10
8.424188086030536
 20
9.478315726485594
 30
0.0
 10
7.8545886117569435
 20
9.38561915072017
 30
0.0
 10
7.1845318583873095
 20
9.207728009675908
 30
0.0
 10
6.62222097903294
 20
8.997563767825172
 30
0.0
 10
6.166690938203568
 20
8.77422167235334
 30
0.0
 10
5.814305790745068
 20
8.556216289408265
 30
0.0
 10
5.558870963358585
 20
8.361145607719624
 30
0.0
 10
5.3917852516709965
 20
8.20537230153427
 30
0.0
 10
5.371698675794853
 20
8.18257389549134
 30
0.0
 10
5.3651025298352435
 20
8.15457578724821
 30
0.0
 10
5.3453136968596615
 20
8.152626757317675
 30
0.0
 10
5.322209505485488
 20
8.126403336288131
 30
0.0
 10
5.138556293855628
 20
7.589437268456651
 30
0.0
 10
4.862522952139514
 20
7.147242600471209
 30
0.0
 10
4.558875575477508
 20
6.8313064013407985
 30
0.0
 10
4.249568125955838
 20
6.641848524060628
 30
0.0
 10
3.956240760223486
 20
6.5760191250386715
 30
0.0
 10
3.6998317046520097
 20
6.627971126597291
 30
0.0
 10
3.2488159014132743
 20
6.86904409591761
 30
0.0
 10
2.5598879057767134
 20
7.154407415208667
 30
0.0
 10
2.0705072415158727
 20
7.302859416733968
 30
0.0
 10
1.8524630469665613
 20
7.447432386087932
 30
0.0
 10
1.6915976919994973
 20
7.701394569954726
 30
0.0
 10
1.606851246745863
 20
8.054074914756857
 30
0.0
 10
1.615540756577442
 20
8.492186662662329
 30
0.0
 10
1.7330345568947643
 20
9.000050558871855
 30
0.0
 10
1.9828644735219292
 20
9.5096053379705
 30
0.0
 10
1.9850701019633314
 20
9.5444852272011
 30
0.0
 10
1.972455456255228
 20
9.559856217470458
 30
0.0
 10
1.9875889289165118
 20
9.584318049207205
 30
0.0
 10
1.9895064824168787
 20
9.614642310733332
 30
0.0
 10
1.9815074037697498
 20
9.842938111638457
 30
0.0
 10
1.9388235070082611
 20
10.161493612080854
 30
0.0
 10
1.8438026642697536
 20
10.564820624040125
 30
0.0
 10
1.6796209935976298
 20
11.044855715177405
 30
0.0
 10
1.4306157182466923
 20
11.5910781116796
 30
0.0
 10
1.0826020763045978
 20
12.190667817912516
 30
0.0
 10
0.745380802801941
 20
12.658981846048176
 30
0.0
 10
1.8849008925965003e-15
 20
12.732395447351628
 30
0.0
 10
-0.7453808028019456
 20
12.658981846048176
 30
0.0
 10
-1.0826020763045923
 20
12.190667817912523
 30
0.0
 10
-1.4306157182466916
 20
11.5910781116796
 30
0.0
 10
-1.6796209935975523
 20
11.044855715177572
 30
0.0
 10
-1.8438026642696392
 20
10.564820624040394
 30
0.0
 10
-1.938823507011335
 20
10.161493612067432
 30
0.0
 10
-1.9815074037748117
 20
9.842938111638514
 30
0.0
 10
-1.9895064824169737
 20
9.614642310733329
 30
0.0
 10
-1.9875889289166122
 20
9.58431804920729
 30
0.0
 10
-1.9724554562552357
 20
9.55985621747044
 30
0.0
 10
-1.9850701019634212
 20
9.544485227201024
 30
0.0
 10
-1.9828644735220307
 20
9.509605337970616
 30
0.0
 10
-1.733034557021477
 20
9.000050558809734
 30
0.0
 10
-1.6155407564454851
 20
8.492186662711646
 30
0.0
 10
-1.6068512467452791
 20
8.05407491475702
 30
0.0
 10
-1.6915976919995508
 20
7.701394569954714
 30
0.0
 10
-1.8524630469666223
 20
7.447432386087922
 30
0.0
 10
-2.0705072415171655
 20
7.302859416734005
 30
0.0
 10
-2.5598879057767467
 20
7.154407415208771
 30
0.0
 10
-3.2488159014132245
 20
6.869044095917512
 30
0.0
 10
-3.699831704652898
 20
6.627971126596351
 30
0.0
 10
-3.956240760223537
 20
6.576019125038636
 30
0.0
 10
-4.249568125955884
 20
6.6418485240606
 30
0.0
 10
-4.558875575476979
 20
6.831306401341097
 30
0.0
 10
-4.862522952011333
 20
7.147242600529644
 30
0.0
 10
-5.138556293989154
 20
7.589437268410978
 30
0.0
 10
-5.322209505485481
 20
8.12640333628798
 30
0.0
 10
-5.345313696859782
 20
8.15262675731767
 30
0.0
 10
-5.365102529835262
 20
8.154575787248216
 30
0.0
 10
-5.371698675794866
 20
8.18257389549121
 30
0.0
 10
-5.391785251671068
 20
8.205372301534208
 30
0.0
 10
-5.558870963362123
 20
8.361145607716004
 30
0.0
 10
-5.814305790756732
 20
8.556216289415582
 30
0.0
 10
-6.166690938203299
 20
8.774221672353232
 30
0.0
 10
-6.622220979032768
 20
8.99756376782511
 30
0.0
 10
-7.184531858387309
 20
9.207728009675908
 30
0.0
 10
-7.854588611756935
 20
9.38561915072017
 30
0.0
 10
-8.42418808603054
 20
9.47831572648559
 30
0.0
 10
-9.00316316157106
 20
9.003163161571065
 30
0.0
 10
-9.478315726485592
 20
8.424188086030538
 30
0.0
 10
-9.385619150720169
 20
7.8545886117569435
 30
0.0
 10
-9.207728009675908
 20
7.1845318583873095
 30
0.0
 10
-8.997563767825172
 20
6.62222097903294
 30
0.0
 10
-8.77422167235334
 20
6.166690938203568
 30
0.0
 10
-8.556216289408265
 20
5.814305790745068
 30
0.0
 10
-8.361145607719624
 20
5.558870963358585
 30
0.0
 10
-8.20537230153427
 20
5.3917852516709965
 30
0.0
 10
-8.18257389549134
 20
5.371698675794853
 30
0.0
 10
-8.15457578724821
 20
5.3651025298352435
 30
0.0
 10
-8.152626757317675
 20
5.3453136968596615
 30
0.0
 10
-8.126403336288131
 20
5.322209505485488
 30
0.0
 10
-7.58943726845665
 20
5.138556293855628
 30
0.0
 10
-7.147242600471208
 20
4.862522952139515
 30
0.0
 10
-6.831306401340798
 20
4.558875575477509
 30
0.0
 10
-6.641848524060627
 20
4.249568125955839
 30
0.0
 10
-6.576019125038671
 20
3.9562407602234866
 30
0.0
 10
-6.6279711265972905
 20
3.69983170465201
 30
0.0
 10
-6.86904409591761
 20
3.2488159014132747
 30
0.0
 10
-7.154407415208667
 20
2.559887905776714
 30
0.0
 10
-7.302859416733968
 20
2.070507241515873
 30
0.0
 10
-7.447432386087932
 20
1.8524630469665617
 30
0.0
 10
-7.701394569954726
 20
1.6915976919994977
 30
0.0
 10
-8.054074914756857
 20
1.6068512467458635
 30
0.0
 10
-8.492186662662329
 20
1.6155407565774427
 30
0.0
 10
-9.000050558871855
 20
1.733034556894765
 30
0.0
 10
-9.5096053379705
 20
1.9828644735219296
 30
0.0
 10
-9.5444852272011
 20
1.985070101963332
 30
0.0
 10
-9.559856217470458
 20
1.9724554562552283
 30
0.0
 10
-9.584318049207205
 20
1.9875889289165123
 30
0.0
 10
-9.614642310733332
 20
1.989506482416879
 30
0.0
 10
-9.842938111638457
 20
1.9815074037697502
 30
0.0
 10
-10.161493612080854
 20
1.9388235070082618
 30
0.0
 10
-10.564820624040125
 20
1.8438026642697543
 30
0.0
 10
-11.044855715177405
 20
1.6796209935976305
 30
0.0
 10
-11.5910781116796
 20
1.430615718246693
 30
0.0
 10
-12.190667817912516
 20
1.0826020763045987
 30
0.0
 10
-12.658981846048176
 20
0.7453808028019417
 30
0.0
 10
-12.73239544735163
 20
2.7730793122966256e-15
 30
0.0
 10
-12.658981846048178
 20
-0.7453808028019447
 30
0.0
 10
-12.190667817912523
 20
-1.0826020763045914
 30
0.0
 10
-11.591078111679602
 20
-1.4306157182466908
 30
0.0
 10
-11.044855715177572
 20
-1.6796209935975515
 30
0.0
 10
-10.564820624040394
 20
-1.8438026642696392
 30
0.0
 10
-10.161493612067433
 20
-1.9388235070113342
 30
0.0
 10
-9.842938111638516
 20
-1.9815074037748108
 30
0.0
 10
-9.61464231073333
 20
-1.9895064824169733
 30
0.0
 10
-9.584318049207292
 20
-1.9875889289166118
 30
0.0
 10
-9.55985621747044
 20
-1.9724554562552348
 30
0.0
 10
-9.544485227201024
 20
-1.9850701019634207
 30
0.0
 10
-9.509605337970616
 20
-1.9828644735220302
 30
0.0
 10
-9.000050558809734
 20
-1.7330345570214765
 30
0.0
 10
-8.492186662711648
 20
-1.6155407564454847
 30
0.0
 10
-8.05407491475702
 20
-1.6068512467452782
 30
0.0
 10
-7.701394569954714
 20
-1.6915976919995503
 30
0.0
 10
-7.447432386087922
 20
-1.852463046966622
 30
0.0
 10
-7.302859416734006
 20
-2.070507241517165
 30
0.0
 10
-7.154407415208772
 20
-2.5598879057767463
 30
0.0
 10
-6.869044095917513
 20
-3.248815901413224
 30
0.0
 10
-6.627971126596352
 20
-3.6998317046528975
 30
0.0
 10
-6.576019125038638
 20
-3.956240760223537
 30
0.0
 10
-6.6418485240606
 20
-4.249568125955884
 30
0.0
 10
-6.831306401341098
 20
-4.558875575476979
 30
0.0
 10
-7.147242600529644
 20
-4.862522952011333
 30
0.0
 10
-7.589437268410979
 20
-5.138556293989154
 30
0.0
 10
-8.126403336287982
 20
-5.322209505485481
 30
0.0
 10
-8.15262675731767
 20
-5.345313696859781
 30
0.0
 10
-8.154575787248216
 20
-5.365102529835261
 30
0.0
 10
-8.18257389549121
 20
-5.3716986757948675
 30
0.0
 10
-8.205372301534206
 20
-5.39178525167107
 30
0.0
 10
-8.361145607716006
 20
-5.558870963362123
 30
0.0
 10
-8.556216289415584
 20
-5.814305790756731
 30
0.0
 10
-8.774221672353233
 20
-6.166690938203299
 30
0.0
 10
-8.99756376782511
 20
-6.622220979032768
 30
0.0
 10
-9.20772800967591
 20
-7.184531858387308
 30
0.0
 10
-9.38561915072017
 20
-7.854588611756935
 30
0.0
 10
-9.478315726485592
 20
-8.42418808603054
 30
0.0
 10
-9.003163161571065
 20
-9.00316316157106
 30
0.0
 10
-8.424188086030538
 20
-9.478315726485592
 30
0.0
 10
-7.854588611756944
 20
-9.385619150720169
 30
0.0
 10
-7.18453185838731
 20
-9.207728009675906
 30
0.0
 10
-6.6222209790329405
 20
-8.99756376782517
 30
0.0
 10
-6.166690938203569
 20
-8.774221672353338
 30
0.0
 10
-5.814305790745069
 20
-8.556216289408264
 30
0.0
 10
-5.5588709633585855
 20
-8.361145607719623
 30
0.0
 10
-5.391785251670997
 20
-8.205372301534268
 30
0.0
 10
-5.371698675794853
 20
-8.182573895491338
 30
0.0
 10
-5.365102529835244
 20
-8.154575787248207
 30
0.0
 10
-5.345313696859663
 20
-8.152626757317673
 30
0.0
 10
-5.322209505485489
 20
-8.126403336288128
 30
0.0
 10
-5.138556293855629
 20
-7.58943726845665
 30
0.0
 10
-4.862522952139515
 20
-7.147242600471208
 30
0.0
 10
-4.558875575477509
 20
-6.831306401340798
 30
0.0
 10
-4.249568125955839
 20
-6.641848524060627
 30
0.0
 10
-3.956240760223487
 20
-6.576019125038671
 30
0.0
 10
-3.6998317046520106
 20
-6.6279711265972905
 30
0.0
 10
-3.248815901413275
 20
-6.869044095917609
 30
0.0
 10
-2.5598879057767143
 20
-7.1544074152086665
 30
0.0
 10
-2.0705072415158736
 20
-7.302859416733968
 30
0.0
 10
-1.8524630469665622
 20
-7.447432386087932
 30
0.0
 10
-1.6915976919994982
 20
-7.701394569954726
 30
0.0
 10
-1.6068512467458642
 20
-8.054074914756857
 30
0.0
 10
-1.6155407565774431
 20
-8.492186662662329
 30
0.0
 10
-1.7330345568947654
 20
-9.000050558871855
 30
0.0
 10
-1.9828644735219303
 20
-9.5096053379705
 30
0.0
 10
-1.9850701019633328
 20
-9.5444852272011
 30
0.0
 10
-1.972455456255229
 20
-9.559856217470458
 30
0.0
 10
-1.9875889289165127
 20
-9.584318049207205
 30
0.0
 10
-1.9895064824168798
 20
-9.614642310733332
 30
0.0
 10
-1.9815074037697509
 20
-9.842938111638457
 30
0.0
 10
-1.9388235070082622
 20
-10.161493612080854
 30
0.0
 10
-1.843802664269755
 20
-10.564820624040125
 30
0.0
 10
-1.6796209935976312
 20
-11.044855715177405
 30
0.0
 10
-1.4306157182466939
 20
-11.5910781116796
 30
0.0
 10
-1.0826020763045994
 20
-12.190667817912516
 30
0.0
 10
-0.7453808028019425
 20
-12.658981846048176
 30
0.0
 10
8.773240143805002e-15
 20
-12.732395447351628
 30
0.0
 10
0.7453808028019554
 20
-12.658981846048174
 30
0.0
 10
1.082602076304602
 20
-12.190667817912523
 30
0.0
 10
1.4306157182467005
 20
-11.5910781116796
 30
0.0
 10
1.6796209935975603
 20
-11.044855715177569
 30
0.0
 10
1.8438026642696481
 20
-10.56482062404039
 30
0.0
 10
1.938823507011343
 20
-10.161493612067432
 30
0.0
 10
1.9815074037748202
 20
-9.842938111638514
 30
0.0
 10
1.9895064824169812
 20
-9.614642310733327
 30
0.0
 10
1.9875889289166198
 20
-9.58431804920729
 30
0.0
 10
1.9724554562552428
 20
-9.559856217470438
 30
0.0
 10
1.9850701019634287
 20
-9.544485227201022
 30
0.0
 10
1.982864473522038
 20
-9.509605337970614
 30
0.0
 10
1.7330345570214845
 20
-9.000050558809733
 30
0.0
 10
1.6155407564454922
 20
-8.492186662711646
 30
0.0
 10
1.606851246745285
 20
-8.054074914757019
 30
0.0
 10
1.6915976919995566
 20
-7.7013945699547115
 30
0.0
 10
1.8524630469666281
 20
-7.44743238608792
 30
0.0
 10
2.070507241517172
 20
-7.3028594167340035
 30
0.0
 10
2.559887905776753
 20
-7.1544074152087695
 30
0.0
 10
3.2488159014132294
 20
-6.86904409591751
 30
0.0
 10
3.6998317046529023
 20
-6.627971126596347
 30
0.0
 10
3.9562407602235425
 20
-6.576019125038634
 30
0.0
 10
4.249568125955888
 20
-6.641848524060596
 30
0.0
 10
4.558875575476985
 20
-6.831306401341093
 30
0.0
 10
4.862522952011338
 20
-7.1472426005296406
 30
0.0
 10
5.1385562939891605
 20
-7.589437268410974
 30
0.0
 10
5.322209505485488
 20
-8.126403336287977
 30
0.0
 10
5.345313696859787
 20
-8.152626757317663
 30
0.0
 10
5.365102529835268
 20
-8.154575787248213
 30
0.0
 10
5.371698675794873
 20
-8.182573895491206
 30
0.0
 10
5.391785251671074
 20
-8.2053723015342
 30
0.0
 10
5.558870963362129
 20
-8.361145607715999
 30
0.0
 10
5.814305790756738
 20
-8.556216289415579
 30
0.0
 10
6.166690938203306
 20
-8.774221672353226
 30
0.0
 10
6.622220979032775
 20
-8.997563767825104
 30
0.0
 10
7.184531858387316
 20
-9.207728009675902
 30
0.0
 10
7.854588611756943
 20
-9.385619150720164
 30
0.0
 10
8.424188086030547
 20
-9.478315726485583
 30
0.0
  0
ENDSEC
  0
EOF
