999
DXF generated by OpenJsCad
  0
SECTION
  2
HEADER
  0
ENDSEC
  0
SECTION
  2
TABLES
  0
TABLE
  2
LTYPE
  70
1
  0
LTYPE
  2
CONTINUOUS
  3
Solid Line
  72
65
  73
0
  40
0.0
  0
ENDTAB
  0
TABLE
  2
LAYER
  70
1
  0
LAYER
  2
OpenJsCad
  62
7
  6
continuous
  0
ENDTAB
  0
TABLE
  2
STYLE
  70
0
  0
ENDTAB
  0
TABLE
  2
VIEW
  70
0
  0
ENDTAB
  0
ENDSEC
  0
SECTION
  2
BLOCKS
  0
ENDSEC
  0
SECTION
  2
ENTITIES
  0
LWPOLYLINE
  8
OpenJsCad
  90
753
  70
1
 10
20.743988646999377
 20
-9.574502371142385
 30
0.0
 10
21.1737591965665
 20
-8.770458225639894
 30
0.0
 10
21.438410594271478
 20
-7.89801948802855
 30
0.0
 10
21.25272054043903
 20
-7.654868100862276
 30
0.0
 10
20.89481380762721
 20
-7.231054362699488
 30
0.0
 10
20.54822105672404
 20
-6.859291716913134
 30
0.0
 10
20.21711179506797
 20
-6.537366999288234
 30
0.0
 10
19.9054616720557
 20
-6.262787108443734
 30
0.0
 10
19.617035245437144
 20
-6.032792886397522
 30
0.0
 10
19.35536965173588
 20
-5.844374006247616
 30
0.0
 10
19.12375923765016
 20
-5.694284811274701
 30
0.0
 10
18.925241205936704
 20
-5.579061046607644
 30
0.0
 10
18.762582325839535
 20
-5.4950374216876225
 30
0.0
 10
18.638266754447095
 20
-5.438365939008763
 30
0.0
 10
18.554484998364412
 20
-5.405034923611511
 30
0.0
 10
18.514422974369786
 20
-5.391332900578139
 30
0.0
 10
18.389461314101727
 20
-5.361892863471826
 30
0.0
 10
18.055147115454815
 20
-5.258966871306467
 30
0.0
 10
17.775353647327645
 20
-5.138556232485988
 30
0.0
 10
17.550873071594644
 20
-5.005766560806875
 30
0.0
 10
17.382128127361774
 20
-4.865732618421854
 30
0.0
 10
17.26917088378054
 20
-4.723595722446405
 30
0.0
 10
17.21168387660173
 20
-4.584478716959132
 30
0.0
 10
17.208982120847995
 20
-4.453462557457431
 30
0.0
 10
17.348675492065137
 20
-3.895775358449284
 30
0.0
 10
17.518934889193744
 20
-3.0398235673584137
 30
0.0
 10
17.60329269420142
 20
-2.471129439875847
 30
0.0
 10
17.6559265046575
 20
-2.3511202088489016
 30
0.0
 10
17.762275347135276
 20
-2.2445921800752497
 30
0.0
 10
17.921027667748465
 20
-2.1565016768077694
 30
0.0
 10
18.130516336502442
 20
-2.0917031601251432
 30
0.0
 10
18.388725758466776
 20
-2.054926350539142
 30
0.0
 10
18.69330036945477
 20
-2.050753815443978
 30
0.0
 10
19.04155448697398
 20
-2.0835991029455196
 30
0.0
 10
19.168270244693794
 20
-2.104220815862519
 30
0.0
 10
19.210526254553752
 20
-2.1068928730055676
 30
0.0
 10
19.30068571991623
 20
-2.10816091357577
 30
0.0
 10
19.437225569407286
 20
-2.103376800203947
 30
0.0
 10
19.61965722869435
 20
-2.087995951433462
 30
0.0
 10
19.847158200781646
 20
-2.057512635361132
 30
0.0
 10
20.118574970163014
 20
-2.00748176829747
 30
0.0
 10
20.432427241015915
 20
-1.9335405087299065
 30
0.0
 10
20.78691349082854
 20
-1.8314295695083143
 30
0.0
 10
21.1799178358713
 20
-1.6970141670891796
 30
0.0
 10
21.609018161646556
 20
-1.5263045382035072
 30
0.0
 10
22.071495515637398
 20
-1.3154759423577493
 30
0.0
 10
22.5643447166338
 20
-1.0608880810510755
 30
0.0
 10
22.828949964185686
 20
-0.907305998303062
 30
0.0
 10
22.918311805232925
 20
-2.149371819093526e-15
 30
0.0
 10
22.828949964185682
 20
0.9073059983030648
 30
0.0
 10
22.564344716633844
 20
1.0608880810510537
 30
0.0
 10
22.0714955156374
 20
1.315475942357748
 30
0.0
 10
21.60901816164653
 20
1.52630453820352
 30
0.0
 10
21.17991783587371
 20
1.6970141670882266
 30
0.0
 10
20.786913490831243
 20
1.8314295695073048
 30
0.0
 10
20.432427240326206
 20
1.9335405089284694
 30
0.0
 10
20.118574970165042
 20
2.007481768308217
 30
0.0
 10
19.84715820078163
 20
2.0575126353609643
 30
0.0
 10
19.61965722869433
 20
2.0879959514332893
 30
0.0
 10
19.437225569407193
 20
2.1033768002040563
 30
0.0
 10
19.30068571991651
 20
2.108160913571236
 30
0.0
 10
19.21052624289743
 20
2.10689286650728
 30
0.0
 10
19.168270221693064
 20
2.1042208122920543
 30
0.0
 10
19.041554486973972
 20
2.0835991029455285
 30
0.0
 10
18.69330036945476
 20
2.050753815443936
 30
0.0
 10
18.38872575436462
 20
2.054926415410548
 30
0.0
 10
18.130516337657756
 20
2.0917030779829773
 30
0.0
 10
17.921027667746735
 20
2.156501676756073
 30
0.0
 10
17.762275347135535
 20
2.2445921800783095
 30
0.0
 10
17.65592650465748
 20
2.351120208848677
 30
0.0
 10
17.603292694201357
 20
2.4711294398752814
 30
0.0
 10
17.51893488919387
 20
3.0398235673584844
 30
0.0
 10
17.348675492065
 20
3.8957753584493027
 30
0.0
 10
17.208982120848273
 20
4.453462557456933
 30
0.0
 10
17.211683876601832
 20
4.584478716958933
 30
0.0
 10
17.26917088377913
 20
4.723595722449132
 30
0.0
 10
17.382128127383158
 20
4.8657326183747545
 30
0.0
 10
17.550873101961717
 20
5.00576648447529
 30
0.0
 10
17.77535362629233
 20
5.138556293989177
 30
0.0
 10
18.055147115454844
 20
5.258966871306432
 30
0.0
 10
18.38946131410173
 20
5.361892863471835
 30
0.0
 10
18.51442299698605
 20
5.391332906081458
 30
0.0
 10
18.554485011620237
 20
5.405034922068556
 30
0.0
 10
18.638266754448573
 20
5.438365939004467
 30
0.0
 10
18.762582325839578
 20
5.4950374216877576
 30
0.0
 10
18.925241205936793
 20
5.579061046607493
 30
0.0
 10
19.12375923765024
 20
5.694284811274551
 30
0.0
 10
19.355369651729898
 20
5.844374006256768
 30
0.0
 10
19.617035245998366
 20
6.03279288684491
 30
0.0
 10
19.90546167205359
 20
6.262787108441766
 30
0.0
 10
20.217111795066113
 20
6.537366999286432
 30
0.0
 10
20.548221056724056
 20
6.859291716913155
 30
0.0
 10
20.894813807627205
 20
7.231054362699484
 30
0.0
 10
21.252720540439
 20
7.654868100862238
 30
0.0
 10
21.43841059427148
 20
7.8980194880285515
 30
0.0
 10
21.173759196566504
 20
8.77045822563989
 30
0.0
 10
20.743988646999377
 20
9.57450237114239
 30
0.0
 10
20.44075195601537
 20
9.61513366959876
 30
0.0
 10
19.887992109996883
 20
9.661736960010128
 30
0.0
 10
19.38003813769577
 20
9.679534763363778
 30
0.0
 10
18.918273382600958
 20
9.673040309997235
 30
0.0
 10
18.503746164467756
 20
9.646827697451245
 30
0.0
 10
18.13716740828977
 20
9.60550988935846
 30
0.0
 10
17.818909624722828
 20
9.553716641506666
 30
0.0
 10
17.54900724278121
 20
9.496072434661405
 30
0.0
 10
17.327158291018904
 20
9.437174493598935
 30
0.0
 10
17.15272741892116
 20
9.38157097142284
 30
0.0
 10
17.02475024568037
 20
9.333739377586284
 30
0.0
 10
16.941939010803356
 20
9.29806531673173
 30
0.0
 10
16.903922088565828
 20
9.279425981299944
 30
0.0
 10
16.794743601325695
 20
9.211881993812327
 30
0.0
 10
16.48556809739504
 20
9.048265823922627
 30
0.0
 10
16.202581059513648
 20
8.935565144515168
 30
0.0
 10
15.949952844852348
 20
8.87072988448554
 30
0.0
 10
15.731613200237604
 20
8.850428140384265
 30
0.0
 10
15.551234404316126
 20
8.87106127046488
 30
0.0
 10
15.412214373751453
 20
8.928782395817041
 30
0.0
 10
15.317661529108207
 20
9.019514380831138
 30
0.0
 10
15.022095258983066
 20
9.512636911105181
 30
0.0
 10
14.53723751740431
 20
10.238277801224678
 30
0.0
 10
14.194760019407363
 20
10.700055251155508
 30
0.0
 10
14.147118402636407
 20
10.822132316512825
 30
0.0
 10
14.146991698791497
 20
10.972658995732484
 30
0.0
 10
14.196957149007615
 20
11.147203230385742
 30
0.0
 10
14.29926853670818
 20
11.341153559200535
 30
0.0
 10
14.45584503849675
 20
11.549740323886445
 30
0.0
 10
14.668261383443086
 20
11.768057524553841
 30
0.0
 10
14.937739357039417
 20
11.991085247105447
 30
0.0
 10
15.041922681649583
 20
12.066105065629026
 30
0.0
 10
15.073691622493014
 20
12.09409514702132
 30
0.0
 10
15.138340631924985
 20
12.156950876281273
 30
0.0
 10
15.231506006395119
 20
12.256882008765771
 30
0.0
 10
15.349628767314101
 20
12.396756574616784
 30
0.0
 10
15.488941287895763
 20
12.579179014214038
 30
0.0
 10
15.645484760683713
 20
12.806476817740707
 30
0.0
 10
15.815127463644899
 20
13.08068825280129
 30
0.0
 10
15.99358375716788
 20
13.403551221438098
 30
0.0
 10
16.176433752036903
 20
13.776493301400103
 30
0.0
 10
16.359143566003045
 20
14.20062298776404
 30
0.0
 10
16.53708610936461
 20
14.676722190706748
 30
0.0
 10
16.70556231835381
 20
15.205240005971406
 30
0.0
 10
16.78406755105542
 20
15.500943103032762
 30
0.0
 10
16.205693690827914
 20
16.205693690827907
 30
0.0
 10
15.500943103032762
 20
16.784067551055415
 30
0.0
 10
15.205240005971454
 20
16.705562318353817
 30
0.0
 10
14.676722190706753
 20
16.53708610936461
 30
0.0
 10
14.200622987764016
 20
16.359143566003034
 30
0.0
 10
13.77649330140248
 20
16.17643375203793
 30
0.0
 10
13.403551221440724
 20
15.993583757169073
 30
0.0
 10
13.080688252173188
 20
15.815127463297602
 30
0.0
 10
12.806476817734543
 20
15.645484760692746
 30
0.0
 10
12.579179014214146
 20
15.488941287895631
 30
0.0
 10
12.396756574616889
 20
15.349628767313959
 30
0.0
 10
12.256882008765631
 20
15.231506006395126
 30
0.0
 10
12.156950876284677
 20
15.13834063192197
 30
0.0
 10
12.094095143374043
 20
15.07369160965576
 30
0.0
 10
12.066105051889755
 20
15.041922662860905
 30
0.0
 10
11.991085247105438
 20
14.937739357039417
 30
0.0
 10
11.768057524553862
 20
14.668261383443046
 30
0.0
 10
11.549740275114775
 20
14.455845081467096
 30
0.0
 10
11.341153618100753
 20
14.299268479441825
 30
0.0
 10
11.147203230421077
 20
14.196957148969831
 30
0.0
 10
10.972658995730509
 20
14.146991698793842
 30
0.0
 10
10.822132316512972
 20
14.147118402636233
 30
0.0
 10
10.700055251155867
 20
14.194760019406916
 30
0.0
 10
10.238277801224715
 20
14.537237517404446
 30
0.0
 10
9.51263691110507
 20
15.02209525898298
 30
0.0
 10
9.019514380831685
 20
15.31766152910805
 30
0.0
 10
8.928782395817256
 20
15.412214373751382
 30
0.0
 10
8.871061270461956
 20
15.551234404317054
 30
0.0
 10
8.85042814043269
 20
15.73161320021942
 30
0.0
 10
8.870729959932886
 20
15.949952812350528
 30
0.0
 10
8.935565086151632
 20
16.202581088128753
 30
0.0
 10
9.048265823922673
 20
16.48556809739503
 30
0.0
 10
9.211881993812321
 20
16.7947436013257
 30
0.0
 10
9.279425993400624
 20
16.903922108449372
 30
0.0
 10
9.298065327196047
 20
16.941939019085602
 30
0.0
 10
9.333739377590367
 20
17.024750245678376
 30
0.0
 10
9.381570971422775
 20
17.152727418921284
 30
0.0
 10
9.437174493599107
 20
17.327158291018854
 30
0.0
 10
9.496072434661569
 20
17.54900724278116
 30
0.0
 10
9.553716641495964
 20
17.818909624725062
 30
0.0
 10
9.605509889438954
 20
18.137167409002963
 30
0.0
 10
9.646827697451144
 20
18.50374616446487
 30
0.0
 10
9.673040309997196
 20
18.918273382598368
 30
0.0
 10
9.679534763363778
 20
19.380038137695795
 30
0.0
 10
9.66173696001013
 20
19.887992109996876
 30
0.0
 10
9.615133669598768
 20
20.44075195601532
 30
0.0
 10
9.574502371142392
 20
20.743988646999377
 30
0.0
 10
8.770458225639896
 20
21.1737591965665
 30
0.0
 10
7.898019488028551
 20
21.438410594271478
 30
0.0
 10
7.654868100862277
 20
21.25272054043903
 30
0.0
 10
7.2310543626994885
 20
20.89481380762721
 30
0.0
 10
6.859291716913135
 20
20.54822105672404
 30
0.0
 10
6.537366999288235
 20
20.21711179506797
 30
0.0
 10
6.262787108443735
 20
19.9054616720557
 30
0.0
 10
6.032792886397523
 20
19.617035245437144
 30
0.0
 10
5.844374006247617
 20
19.35536965173588
 30
0.0
 10
5.694284811274702
 20
19.12375923765016
 30
0.0
 10
5.579061046607645
 20
18.925241205936704
 30
0.0
 10
5.495037421687623
 20
18.762582325839535
 30
0.0
 10
5.438365939008764
 20
18.638266754447095
 30
0.0
 10
5.405034923611512
 20
18.554484998364412
 30
0.0
 10
5.39133290057814
 20
18.514422974369786
 30
0.0
 10
5.361892863471827
 20
18.389461314101727
 30
0.0
 10
5.258966871306468
 20
18.055147115454815
 30
0.0
 10
5.138556232485989
 20
17.775353647327645
 30
0.0
 10
5.005766560806876
 20
17.550873071594644
 30
0.0
 10
4.865732618421855
 20
17.382128127361774
 30
0.0
 10
4.723595722446406
 20
17.26917088378054
 30
0.0
 10
4.584478716959133
 20
17.21168387660173
 30
0.0
 10
4.453462557457432
 20
17.208982120847995
 30
0.0
 10
3.895775358449285
 20
17.348675492065137
 30
0.0
 10
3.0398235673584146
 20
17.518934889193744
 30
0.0
 10
2.471129439875848
 20
17.60329269420142
 30
0.0
 10
2.3511202088489025
 20
17.6559265046575
 30
0.0
 10
2.2445921800752506
 20
17.762275347135276
 30
0.0
 10
2.1565016768077703
 20
17.921027667748465
 30
0.0
 10
2.091703160125144
 20
18.130516336502442
 30
0.0
 10
2.0549263505391435
 20
18.388725758466776
 30
0.0
 10
2.0507538154439793
 20
18.69330036945477
 30
0.0
 10
2.083599102945521
 20
19.04155448697398
 30
0.0
 10
2.1042208158625204
 20
19.168270244693794
 30
0.0
 10
2.106892873005569
 20
19.210526254553752
 30
0.0
 10
2.1081609135757713
 20
19.30068571991623
 30
0.0
 10
2.1033768002039483
 20
19.437225569407286
 30
0.0
 10
2.0879959514334634
 20
19.61965722869435
 30
0.0
 10
2.0575126353611335
 20
19.847158200781646
 30
0.0
 10
2.0074817682974713
 20
20.118574970163014
 30
0.0
 10
1.9335405087299078
 20
20.432427241015915
 30
0.0
 10
1.8314295695083156
 20
20.78691349082854
 30
0.0
 10
1.697014167089181
 20
21.1799178358713
 30
0.0
 10
1.5263045382035085
 20
21.609018161646556
 30
0.0
 10
1.3154759423577507
 20
22.071495515637398
 30
0.0
 10
1.0608880810510768
 20
22.5643447166338
 30
0.0
 10
0.9073059983030635
 20
22.828949964185686
 30
0.0
 10
2.149371819093526e-15
 20
22.918311805232925
 30
0.0
 10
-0.907305998303063
 20
22.828949964185682
 30
0.0
 10
-1.060888081051052
 20
22.56434471663384
 30
0.0
 10
-1.3154759423577471
 20
22.0714955156374
 30
0.0
 10
-1.5263045382035192
 20
21.60901816164653
 30
0.0
 10
-1.6970141670882257
 20
21.17991783587371
 30
0.0
 10
-1.831429569507304
 20
20.786913490831243
 30
0.0
 10
-1.9335405089284685
 20
20.432427240326202
 30
0.0
 10
-2.007481768308216
 20
20.118574970165042
 30
0.0
 10
-2.0575126353609634
 20
19.84715820078163
 30
0.0
 10
-2.0879959514332884
 20
19.61965722869433
 30
0.0
 10
-2.1033768002040545
 20
19.437225569407193
 30
0.0
 10
-2.108160913571234
 20
19.30068571991651
 30
0.0
 10
-2.106892866507279
 20
19.21052624289743
 30
0.0
 10
-2.1042208122920534
 20
19.168270221693064
 30
0.0
 10
-2.0835991029455276
 20
19.041554486973972
 30
0.0
 10
-2.0507538154439353
 20
18.69330036945476
 30
0.0
 10
-2.0549264154105464
 20
18.38872575436462
 30
0.0
 10
-2.0917030779829764
 20
18.130516337657756
 30
0.0
 10
-2.156501676756072
 20
17.921027667746735
 30
0.0
 10
-2.2445921800783086
 20
17.762275347135535
 30
0.0
 10
-2.351120208848676
 20
17.65592650465748
 30
0.0
 10
-2.4711294398752806
 20
17.603292694201357
 30
0.0
 10
-3.0398235673584835
 20
17.51893488919387
 30
0.0
 10
-3.895775358449302
 20
17.348675492065
 30
0.0
 10
-4.453462557456932
 20
17.208982120848273
 30
0.0
 10
-4.584478716958931
 20
17.211683876601832
 30
0.0
 10
-4.723595722449131
 20
17.26917088377913
 30
0.0
 10
-4.865732618374753
 20
17.382128127383158
 30
0.0
 10
-5.005766484475289
 20
17.550873101961717
 30
0.0
 10
-5.1385562939891765
 20
17.77535362629233
 30
0.0
 10
-5.2589668713064315
 20
18.055147115454844
 30
0.0
 10
-5.361892863471835
 20
18.38946131410173
 30
0.0
 10
-5.391332906081456
 20
18.51442299698605
 30
0.0
 10
-5.405034922068555
 20
18.554485011620237
 30
0.0
 10
-5.438365939004466
 20
18.638266754448573
 30
0.0
 10
-5.495037421687757
 20
18.762582325839578
 30
0.0
 10
-5.5790610466074915
 20
18.925241205936793
 30
0.0
 10
-5.69428481127455
 20
19.12375923765024
 30
0.0
 10
-5.844374006256767
 20
19.355369651729895
 30
0.0
 10
-6.032792886844909
 20
19.617035245998366
 30
0.0
 10
-6.262787108441766
 20
19.90546167205359
 30
0.0
 10
-6.53736699928643
 20
20.217111795066113
 30
0.0
 10
-6.8592917169131535
 20
20.548221056724056
 30
0.0
 10
-7.231054362699484
 20
20.894813807627205
 30
0.0
 10
-7.654868100862236
 20
21.252720540439
 30
0.0
 10
-7.89801948802855
 20
21.43841059427148
 30
0.0
 10
-8.77045822563989
 20
21.173759196566504
 30
0.0
 10
-9.57450237114239
 20
20.743988646999377
 30
0.0
 10
-9.61513366959876
 20
20.44075195601537
 30
0.0
 10
-9.661736960010128
 20
19.887992109996883
 30
0.0
 10
-9.679534763363778
 20
19.38003813769577
 30
0.0
 10
-9.673040309997235
 20
18.918273382600958
 30
0.0
 10
-9.646827697451245
 20
18.503746164467756
 30
0.0
 10
-9.60550988935846
 20
18.13716740828977
 30
0.0
 10
-9.553716641506666
 20
17.818909624722828
 30
0.0
 10
-9.496072434661405
 20
17.54900724278121
 30
0.0
 10
-9.437174493598935
 20
17.327158291018904
 30
0.0
 10
-9.38157097142284
 20
17.15272741892116
 30
0.0
 10
-9.333739377586284
 20
17.02475024568037
 30
0.0
 10
-9.29806531673173
 20
16.941939010803356
 30
0.0
 10
-9.279425981299944
 20
16.903922088565828
 30
0.0
 10
-9.211881993812327
 20
16.794743601325695
 30
0.0
 10
-9.048265823922627
 20
16.48556809739504
 30
0.0
 10
-8.935565144515168
 20
16.202581059513648
 30
0.0
 10
-8.87072988448554
 20
15.949952844852348
 30
0.0
 10
-8.850428140384265
 20
15.731613200237604
 30
0.0
 10
-8.87106127046488
 20
15.551234404316126
 30
0.0
 10
-8.928782395817041
 20
15.412214373751453
 30
0.0
 10
-9.019514380831138
 20
15.317661529108207
 30
0.0
 10
-9.512636911105181
 20
15.022095258983066
 30
0.0
 10
-10.238277801224678
 20
14.53723751740431
 30
0.0
 10
-10.700055251155508
 20
14.194760019407363
 30
0.0
 10
-10.822132316512825
 20
14.147118402636407
 30
0.0
 10
-10.972658995732484
 20
14.146991698791497
 30
0.0
 10
-11.147203230385742
 20
14.196957149007615
 30
0.0
 10
-11.341153559200535
 20
14.29926853670818
 30
0.0
 10
-11.549740323886445
 20
14.45584503849675
 30
0.0
 10
-11.768057524553841
 20
14.668261383443086
 30
0.0
 10
-11.991085247105447
 20
14.937739357039417
 30
0.0
 10
-12.066105065629026
 20
15.041922681649583
 30
0.0
 10
-12.09409514702132
 20
15.073691622493014
 30
0.0
 10
-12.156950876281273
 20
15.138340631924985
 30
0.0
 10
-12.256882008765771
 20
15.231506006395119
 30
0.0
 10
-12.396756574616784
 20
15.349628767314101
 30
0.0
 10
-12.579179014214038
 20
15.488941287895763
 30
0.0
 10
-12.806476817740707
 20
15.645484760683713
 30
0.0
 10
-13.08068825280129
 20
15.815127463644899
 30
0.0
 10
-13.403551221438098
 20
15.99358375716788
 30
0.0
 10
-13.776493301400103
 20
16.176433752036903
 30
0.0
 10
-14.20062298776404
 20
16.359143566003045
 30
0.0
 10
-14.676722190706748
 20
16.53708610936461
 30
0.0
 10
-15.205240005971406
 20
16.70556231835381
 30
0.0
 10
-15.500943103032762
 20
16.78406755105542
 30
0.0
 10
-16.205693690827914
 20
16.205693690827907
 30
0.0
 10
-16.784067551055422
 20
15.500943103032755
 30
0.0
 10
-16.705562318353827
 20
15.205240005971449
 30
0.0
 10
-16.537086109364616
 20
14.676722190706746
 30
0.0
 10
-16.35914356600304
 20
14.200622987764008
 30
0.0
 10
-16.176433752037937
 20
13.776493301402473
 30
0.0
 10
-15.993583757169079
 20
13.40355122144072
 30
0.0
 10
-15.815127463297607
 20
13.08068825217318
 30
0.0
 10
-15.645484760692751
 20
12.806476817734536
 30
0.0
 10
-15.488941287895637
 20
12.57917901421414
 30
0.0
 10
-15.349628767313966
 20
12.396756574616884
 30
0.0
 10
-15.231506006395136
 20
12.256882008765624
 30
0.0
 10
-15.138340631921977
 20
12.156950876284672
 30
0.0
 10
-15.073691609655766
 20
12.094095143374036
 30
0.0
 10
-15.041922662860912
 20
12.06610505188975
 30
0.0
 10
-14.937739357039423
 20
11.991085247105433
 30
0.0
 10
-14.668261383443053
 20
11.768057524553855
 30
0.0
 10
-14.455845081467102
 20
11.54974027511477
 30
0.0
 10
-14.29926847944183
 20
11.341153618100748
 30
0.0
 10
-14.19695714896984
 20
11.147203230421072
 30
0.0
 10
-14.146991698793848
 20
10.972658995730502
 30
0.0
 10
-14.147118402636238
 20
10.822132316512967
 30
0.0
 10
-14.194760019406921
 20
10.70005525115586
 30
0.0
 10
-14.537237517404451
 20
10.23827780122471
 30
0.0
 10
-15.022095258982983
 20
9.512636911105062
 30
0.0
 10
-15.317661529108053
 20
9.019514380831678
 30
0.0
 10
-15.41221437375139
 20
8.928782395817251
 30
0.0
 10
-15.551234404317059
 20
8.871061270461949
 30
0.0
 10
-15.731613200219423
 20
8.850428140432685
 30
0.0
 10
-15.949952812350531
 20
8.870729959932879
 30
0.0
 10
-16.20258108812876
 20
8.935565086151625
 30
0.0
 10
-16.485568097395035
 20
9.048265823922666
 30
0.0
 10
-16.794743601325706
 20
9.211881993812314
 30
0.0
 10
-16.903922108449375
 20
9.279425993400617
 30
0.0
 10
-16.94193901908561
 20
9.298065327196042
 30
0.0
 10
-17.02475024567838
 20
9.33373937759036
 30
0.0
 10
-17.15272741892129
 20
9.38157097142277
 30
0.0
 10
-17.327158291018858
 20
9.437174493599098
 30
0.0
 10
-17.549007242781165
 20
9.496072434661562
 30
0.0
 10
-17.81890962472507
 20
9.553716641495956
 30
0.0
 10
-18.137167409002966
 20
9.605509889438947
 30
0.0
 10
-18.503746164464875
 20
9.646827697451137
 30
0.0
 10
-18.91827338259837
 20
9.67304030999719
 30
0.0
 10
-19.3800381376958
 20
9.679534763363772
 30
0.0
 10
-19.88799210999688
 20
9.66173696001012
 30
0.0
 10
-20.440751956015323
 20
9.615133669598759
 30
0.0
 10
-20.743988646999384
 20
9.574502371142383
 30
0.0
 10
-21.1737591965665
 20
8.770458225639896
 30
0.0
 10
-21.438410594271478
 20
7.898019488028552
 30
0.0
 10
-21.25272054043903
 20
7.654868100862279
 30
0.0
 10
-20.89481380762721
 20
7.23105436269949
 30
0.0
 10
-20.54822105672404
 20
6.859291716913137
 30
0.0
 10
-20.21711179506797
 20
6.537366999288237
 30
0.0
 10
-19.9054616720557
 20
6.262787108443737
 30
0.0
 10
-19.617035245437144
 20
6.032792886397525
 30
0.0
 10
-19.35536965173588
 20
5.844374006247619
 30
0.0
 10
-19.12375923765016
 20
5.694284811274704
 30
0.0
 10
-18.925241205936704
 20
5.579061046607647
 30
0.0
 10
-18.762582325839535
 20
5.495037421687625
 30
0.0
 10
-18.638266754447095
 20
5.438365939008766
 30
0.0
 10
-18.554484998364412
 20
5.405034923611514
 30
0.0
 10
-18.514422974369786
 20
5.391332900578142
 30
0.0
 10
-18.389461314101727
 20
5.361892863471828
 30
0.0
 10
-18.055147115454815
 20
5.258966871306469
 30
0.0
 10
-17.775353647327645
 20
5.13855623248599
 30
0.0
 10
-17.550873071594644
 20
5.005766560806877
 30
0.0
 10
-17.382128127361774
 20
4.8657326184218554
 30
0.0
 10
-17.26917088378054
 20
4.723595722446407
 30
0.0
 10
-17.21168387660173
 20
4.584478716959134
 30
0.0
 10
-17.208982120847995
 20
4.453462557457433
 30
0.0
 10
-17.348675492065137
 20
3.8957753584492862
 30
0.0
 10
-17.518934889193744
 20
3.039823567358416
 30
0.0
 10
-17.60329269420142
 20
2.4711294398758494
 30
0.0
 10
-17.6559265046575
 20
2.351120208848904
 30
0.0
 10
-17.762275347135276
 20
2.244592180075252
 30
0.0
 10
-17.921027667748465
 20
2.1565016768077716
 30
0.0
 10
-18.130516336502442
 20
2.0917031601251455
 30
0.0
 10
-18.388725758466776
 20
2.0549263505391444
 30
0.0
 10
-18.69330036945477
 20
2.05075381544398
 30
0.0
 10
-19.04155448697398
 20
2.083599102945522
 30
0.0
 10
-19.168270244693794
 20
2.1042208158625213
 30
0.0
 10
-19.210526254553752
 20
2.10689287300557
 30
0.0
 10
-19.30068571991623
 20
2.108160913575772
 30
0.0
 10
-19.437225569407286
 20
2.1033768002039492
 30
0.0
 10
-19.61965722869435
 20
2.0879959514334643
 30
0.0
 10
-19.847158200781646
 20
2.0575126353611344
 30
0.0
 10
-20.118574970163014
 20
2.0074817682974726
 30
0.0
 10
-20.432427241015915
 20
1.933540508729909
 30
0.0
 10
-20.78691349082854
 20
1.8314295695083167
 30
0.0
 10
-21.1799178358713
 20
1.6970141670891823
 30
0.0
 10
-21.609018161646556
 20
1.5263045382035099
 30
0.0
 10
-22.071495515637398
 20
1.315475942357752
 30
0.0
 10
-22.5643447166338
 20
1.0608880810510781
 30
0.0
 10
-22.828949964185686
 20
0.9073059983030648
 30
0.0
 10
-22.91831180523293
 20
3.925728658493776e-15
 30
0.0
 10
-22.828949964185686
 20
-0.9073059983030621
 30
0.0
 10
-22.564344716633848
 20
-1.0608880810510493
 30
0.0
 10
-22.071495515637405
 20
-1.3154759423577453
 30
0.0
 10
-21.609018161646535
 20
-1.5263045382035174
 30
0.0
 10
-21.17991783587371
 20
-1.697014167088224
 30
0.0
 10
-20.786913490831243
 20
-1.8314295695073022
 30
0.0
 10
-20.432427240326206
 20
-1.9335405089284659
 30
0.0
 10
-20.118574970165042
 20
-2.0074817683082142
 30
0.0
 10
-19.84715820078163
 20
-2.0575126353609616
 30
0.0
 10
-19.61965722869433
 20
-2.0879959514332858
 30
0.0
 10
-19.437225569407197
 20
-2.1033768002040527
 30
0.0
 10
-19.300685719916512
 20
-2.1081609135712323
 30
0.0
 10
-19.210526242897433
 20
-2.1068928665072764
 30
0.0
 10
-19.168270221693064
 20
-2.1042208122920516
 30
0.0
 10
-19.041554486973975
 20
-2.083599102945526
 30
0.0
 10
-18.69330036945476
 20
-2.0507538154439335
 30
0.0
 10
-18.388725754364625
 20
-2.0549264154105447
 30
0.0
 10
-18.13051633765776
 20
-2.0917030779829746
 30
0.0
 10
-17.921027667746735
 20
-2.1565016767560703
 30
0.0
 10
-17.76227534713554
 20
-2.244592180078307
 30
0.0
 10
-17.655926504657483
 20
-2.351120208848675
 30
0.0
 10
-17.60329269420136
 20
-2.4711294398752797
 30
0.0
 10
-17.51893488919387
 20
-3.039823567358482
 30
0.0
 10
-17.348675492065
 20
-3.8957753584493005
 30
0.0
 10
-17.208982120848273
 20
-4.453462557456931
 30
0.0
 10
-17.211683876601835
 20
-4.58447871695893
 30
0.0
 10
-17.269170883779132
 20
-4.72359572244913
 30
0.0
 10
-17.382128127383158
 20
-4.865732618374752
 30
0.0
 10
-17.55087310196172
 20
-5.005766484475287
 30
0.0
 10
-17.775353626292333
 20
-5.138556293989175
 30
0.0
 10
-18.055147115454847
 20
-5.258966871306431
 30
0.0
 10
-18.389461314101727
 20
-5.361892863471833
 30
0.0
 10
-18.514422996986053
 20
-5.3913329060814545
 30
0.0
 10
-18.55448501162024
 20
-5.4050349220685545
 30
0.0
 10
-18.638266754448576
 20
-5.438365939004465
 30
0.0
 10
-18.76258232583958
 20
-5.495037421687755
 30
0.0
 10
-18.925241205936796
 20
-5.57906104660749
 30
0.0
 10
-19.12375923765024
 20
-5.6942848112745486
 30
0.0
 10
-19.355369651729895
 20
-5.844374006256765
 30
0.0
 10
-19.61703524599837
 20
-6.032792886844908
 30
0.0
 10
-19.90546167205359
 20
-6.262787108441764
 30
0.0
 10
-20.217111795066117
 20
-6.537366999286428
 30
0.0
 10
-20.54822105672406
 20
-6.859291716913152
 30
0.0
 10
-20.89481380762721
 20
-7.231054362699482
 30
0.0
 10
-21.252720540439004
 20
-7.654868100862236
 30
0.0
 10
-21.43841059427148
 20
-7.89801948802855
 30
0.0
 10
-21.173759196566504
 20
-8.77045822563989
 30
0.0
 10
-20.74398864699938
 20
-9.574502371142389
 30
0.0
 10
-20.440751956015372
 20
-9.61513366959876
 30
0.0
 10
-19.887992109996883
 20
-9.661736960010126
 30
0.0
 10
-19.38003813769577
 20
-9.679534763363778
 30
0.0
 10
-18.918273382600965
 20
-9.673040309997234
 30
0.0
 10
-18.503746164467756
 20
-9.646827697451245
 30
0.0
 10
-18.13716740828977
 20
-9.60550988935846
 30
0.0
 10
-17.818909624722828
 20
-9.553716641506666
 30
0.0
 10
-17.54900724278121
 20
-9.496072434661405
 30
0.0
 10
-17.327158291018904
 20
-9.437174493598933
 30
0.0
 10
-17.152727418921163
 20
-9.381570971422839
 30
0.0
 10
-17.024750245680373
 20
-9.333739377586282
 30
0.0
 10
-16.94193901080336
 20
-9.298065316731728
 30
0.0
 10
-16.903922088565828
 20
-9.279425981299944
 30
0.0
 10
-16.794743601325695
 20
-9.211881993812327
 30
0.0
 10
-16.485568097395042
 20
-9.048265823922627
 30
0.0
 10
-16.20258105951365
 20
-8.935565144515168
 30
0.0
 10
-15.949952844852351
 20
-8.87072988448554
 30
0.0
 10
-15.731613200237607
 20
-8.850428140384265
 30
0.0
 10
-15.551234404316128
 20
-8.87106127046488
 30
0.0
 10
-15.412214373751453
 20
-8.928782395817041
 30
0.0
 10
-15.31766152910821
 20
-9.019514380831138
 30
0.0
 10
-15.022095258983068
 20
-9.512636911105181
 30
0.0
 10
-14.537237517404314
 20
-10.238277801224678
 30
0.0
 10
-14.194760019407365
 20
-10.700055251155508
 30
0.0
 10
-14.147118402636409
 20
-10.822132316512823
 30
0.0
 10
-14.1469916987915
 20
-10.972658995732484
 30
0.0
 10
-14.196957149007616
 20
-11.147203230385742
 30
0.0
 10
-14.299268536708182
 20
-11.341153559200535
 30
0.0
 10
-14.455845038496753
 20
-11.549740323886443
 30
0.0
 10
-14.668261383443088
 20
-11.768057524553841
 30
0.0
 10
-14.937739357039419
 20
-11.991085247105447
 30
0.0
 10
-15.041922681649586
 20
-12.066105065629026
 30
0.0
 10
-15.073691622493016
 20
-12.09409514702132
 30
0.0
 10
-15.138340631924988
 20
-12.156950876281273
 30
0.0
 10
-15.23150600639512
 20
-12.256882008765771
 30
0.0
 10
-15.349628767314103
 20
-12.396756574616782
 30
0.0
 10
-15.488941287895763
 20
-12.579179014214038
 30
0.0
 10
-15.645484760683717
 20
-12.806476817740707
 30
0.0
 10
-15.815127463644902
 20
-13.08068825280129
 30
0.0
 10
-15.993583757167881
 20
-13.403551221438098
 30
0.0
 10
-16.176433752036907
 20
-13.776493301400103
 30
0.0
 10
-16.35914356600305
 20
-14.20062298776404
 30
0.0
 10
-16.537086109364612
 20
-14.676722190706748
 30
0.0
 10
-16.70556231835381
 20
-15.205240005971406
 30
0.0
 10
-16.784067551055422
 20
-15.500943103032762
 30
0.0
 10
-16.205693690827907
 20
-16.20569369082791
 30
0.0
 10
-15.500943103032757
 20
-16.78406755105542
 30
0.0
 10
-15.205240005971449
 20
-16.705562318353824
 30
0.0
 10
-14.67672219070675
 20
-16.537086109364612
 30
0.0
 10
-14.200622987764008
 20
-16.35914356600304
 30
0.0
 10
-13.776493301402473
 20
-16.176433752037934
 30
0.0
 10
-13.40355122144072
 20
-15.993583757169075
 30
0.0
 10
-13.08068825217318
 20
-15.815127463297607
 30
0.0
 10
-12.806476817734536
 20
-15.645484760692748
 30
0.0
 10
-12.579179014214143
 20
-15.488941287895633
 30
0.0
 10
-12.396756574616884
 20
-15.349628767313963
 30
0.0
 10
-12.256882008765624
 20
-15.231506006395131
 30
0.0
 10
-12.156950876284673
 20
-15.138340631921976
 30
0.0
 10
-12.094095143374036
 20
-15.073691609655766
 30
0.0
 10
-12.06610505188975
 20
-15.041922662860912
 30
0.0
 10
-11.991085247105433
 20
-14.937739357039423
 30
0.0
 10
-11.768057524553855
 20
-14.668261383443049
 30
0.0
 10
-11.549740275114772
 20
-14.455845081467102
 30
0.0
 10
-11.341153618100748
 20
-14.299268479441828
 30
0.0
 10
-11.147203230421072
 20
-14.196957148969837
 30
0.0
 10
-10.972658995730503
 20
-14.146991698793846
 30
0.0
 10
-10.822132316512967
 20
-14.147118402636236
 30
0.0
 10
-10.70005525115586
 20
-14.19476001940692
 30
0.0
 10
-10.23827780122471
 20
-14.537237517404447
 30
0.0
 10
-9.512636911105064
 20
-15.02209525898298
 30
0.0
 10
-9.019514380831678
 20
-15.31766152910805
 30
0.0
 10
-8.928782395817251
 20
-15.412214373751386
 30
0.0
 10
-8.87106127046195
 20
-15.551234404317059
 30
0.0
 10
-8.850428140432685
 20
-15.73161320021942
 30
0.0
 10
-8.87072995993288
 20
-15.949952812350531
 30
0.0
 10
-8.935565086151627
 20
-16.202581088128756
 30
0.0
 10
-9.048265823922668
 20
-16.485568097395035
 30
0.0
 10
-9.211881993812316
 20
-16.794743601325703
 30
0.0
 10
-9.279425993400617
 20
-16.903922108449375
 30
0.0
 10
-9.298065327196042
 20
-16.941939019085606
 30
0.0
 10
-9.33373937759036
 20
-17.02475024567838
 30
0.0
 10
-9.38157097142277
 20
-17.152727418921287
 30
0.0
 10
-9.4371744935991
 20
-17.327158291018858
 30
0.0
 10
-9.496072434661563
 20
-17.54900724278116
 30
0.0
 10
-9.553716641495958
 20
-17.818909624725066
 30
0.0
 10
-9.605509889438947
 20
-18.137167409002966
 30
0.0
 10
-9.646827697451139
 20
-18.50374616446487
 30
0.0
 10
-9.67304030999719
 20
-18.91827338259837
 30
0.0
 10
-9.67953476336377
 20
-19.3800381376958
 30
0.0
 10
-9.661736960010122
 20
-19.88799210999688
 30
0.0
 10
-9.61513366959876
 20
-20.440751956015323
 30
0.0
 10
-9.574502371142385
 20
-20.74398864699938
 30
0.0
 10
-8.770458225639898
 20
-21.1737591965665
 30
0.0
 10
-7.898019488028553
 20
-21.438410594271478
 30
0.0
 10
-7.65486810086228
 20
-21.25272054043903
 30
0.0
 10
-7.231054362699491
 20
-20.89481380762721
 30
0.0
 10
-6.8592917169131375
 20
-20.54822105672404
 30
0.0
 10
-6.5373669992882375
 20
-20.21711179506797
 30
0.0
 10
-6.262787108443738
 20
-19.9054616720557
 30
0.0
 10
-6.032792886397526
 20
-19.617035245437144
 30
0.0
 10
-5.8443740062476195
 20
-19.35536965173588
 30
0.0
 10
-5.694284811274705
 20
-19.12375923765016
 30
0.0
 10
-5.579061046607648
 20
-18.925241205936704
 30
0.0
 10
-5.495037421687626
 20
-18.762582325839535
 30
0.0
 10
-5.438365939008767
 20
-18.638266754447095
 30
0.0
 10
-5.405034923611515
 20
-18.554484998364412
 30
0.0
 10
-5.391332900578143
 20
-18.514422974369786
 30
0.0
 10
-5.361892863471829
 20
-18.389461314101727
 30
0.0
 10
-5.258966871306471
 20
-18.055147115454815
 30
0.0
 10
-5.138556232485992
 20
-17.775353647327645
 30
0.0
 10
-5.005766560806879
 20
-17.550873071594644
 30
0.0
 10
-4.865732618421857
 20
-17.382128127361774
 30
0.0
 10
-4.723595722446409
 20
-17.26917088378054
 30
0.0
 10
-4.5844787169591354
 20
-17.21168387660173
 30
0.0
 10
-4.453462557457435
 20
-17.208982120847995
 30
0.0
 10
-3.895775358449287
 20
-17.348675492065137
 30
0.0
 10
-3.039823567358417
 20
-17.518934889193744
 30
0.0
 10
-2.4711294398758503
 20
-17.60329269420142
 30
0.0
 10
-2.3511202088489047
 20
-17.6559265046575
 30
0.0
 10
-2.244592180075253
 20
-17.762275347135276
 30
0.0
 10
-2.1565016768077725
 20
-17.921027667748465
 30
0.0
 10
-2.0917031601251463
 20
-18.130516336502442
 30
0.0
 10
-2.0549263505391457
 20
-18.388725758466776
 30
0.0
 10
-2.0507538154439815
 20
-18.69330036945477
 30
0.0
 10
-2.083599102945523
 20
-19.04155448697398
 30
0.0
 10
-2.1042208158625226
 20
-19.168270244693794
 30
0.0
 10
-2.106892873005571
 20
-19.210526254553752
 30
0.0
 10
-2.1081609135757735
 20
-19.30068571991623
 30
0.0
 10
-2.1033768002039506
 20
-19.437225569407286
 30
0.0
 10
-2.0879959514334656
 20
-19.61965722869435
 30
0.0
 10
-2.0575126353611357
 20
-19.847158200781646
 30
0.0
 10
-2.0074817682974735
 20
-20.118574970163014
 30
0.0
 10
-1.9335405087299102
 20
-20.432427241015915
 30
0.0
 10
-1.831429569508318
 20
-20.78691349082854
 30
0.0
 10
-1.6970141670891836
 20
-21.1799178358713
 30
0.0
 10
-1.5263045382035112
 20
-21.609018161646556
 30
0.0
 10
-1.3154759423577533
 20
-22.071495515637398
 30
0.0
 10
-1.0608880810510797
 20
-22.5643447166338
 30
0.0
 10
-0.9073059983030662
 20
-22.828949964185686
 30
0.0
 10
4.956055538507476e-15
 20
-22.91831180523293
 30
0.0
 10
0.907305998303071
 20
-22.828949964185686
 30
0.0
 10
1.0608880810510581
 20
-22.564344716633844
 30
0.0
 10
1.3154759423577533
 20
-22.0714955156374
 30
0.0
 10
1.5263045382035254
 20
-21.609018161646528
 30
0.0
 10
1.697014167088231
 20
-21.179917835873706
 30
0.0
 10
1.8314295695073093
 20
-20.78691349083124
 30
0.0
 10
1.9335405089284747
 20
-20.432427240326206
 30
0.0
 10
2.0074817683082213
 20
-20.118574970165042
 30
0.0
 10
2.0575126353609696
 20
-19.847158200781628
 30
0.0
 10
2.0879959514332938
 20
-19.619657228694326
 30
0.0
 10
2.1033768002040607
 20
-19.437225569407193
 30
0.0
 10
2.1081609135712402
 20
-19.300685719916505
 30
0.0
 10
2.1068928665072835
 20
-19.21052624289743
 30
0.0
 10
2.1042208122920587
 20
-19.168270221693064
 30
0.0
 10
2.083599102945533
 20
-19.041554486973975
 30
0.0
 10
2.0507538154439415
 20
-18.693300369454757
 30
0.0
 10
2.0549264154105518
 20
-18.38872575436462
 30
0.0
 10
2.0917030779829817
 20
-18.130516337657756
 30
0.0
 10
2.1565016767560774
 20
-17.921027667746735
 30
0.0
 10
2.244592180078313
 20
-17.762275347135535
 30
0.0
 10
2.3511202088486822
 20
-17.65592650465748
 30
0.0
 10
2.4711294398752868
 20
-17.603292694201357
 30
0.0
 10
3.0398235673584884
 20
-17.518934889193865
 30
0.0
 10
3.8957753584493067
 20
-17.348675492064995
 30
0.0
 10
4.453462557456937
 20
-17.20898212084827
 30
0.0
 10
4.5844787169589365
 20
-17.211683876601832
 30
0.0
 10
4.7235957224491365
 20
-17.26917088377913
 30
0.0
 10
4.865732618374759
 20
-17.382128127383154
 30
0.0
 10
5.005766484475293
 20
-17.550873101961717
 30
0.0
 10
5.138556293989182
 20
-17.77535362629233
 30
0.0
 10
5.258966871306437
 20
-18.055147115454844
 30
0.0
 10
5.36189286347184
 20
-18.389461314101727
 30
0.0
 10
5.3913329060814625
 20
-18.514422996986045
 30
0.0
 10
5.405034922068561
 20
-18.554485011620237
 30
0.0
 10
5.438365939004472
 20
-18.638266754448576
 30
0.0
 10
5.495037421687763
 20
-18.762582325839578
 30
0.0
 10
5.579061046607498
 20
-18.925241205936793
 30
0.0
 10
5.694284811274556
 20
-19.123759237650237
 30
0.0
 10
5.844374006256772
 20
-19.355369651729895
 30
0.0
 10
6.032792886844915
 20
-19.617035245998366
 30
0.0
 10
6.2627871084417714
 20
-19.90546167205359
 30
0.0
 10
6.537366999286435
 20
-20.21711179506611
 30
0.0
 10
6.85929171691316
 20
-20.548221056724053
 30
0.0
 10
7.231054362699489
 20
-20.8948138076272
 30
0.0
 10
7.6548681008622435
 20
-21.252720540438997
 30
0.0
 10
7.898019488028557
 20
-21.438410594271478
 30
0.0
 10
8.770458225639908
 20
-21.173759196566497
 30
0.0
 10
9.574502371142406
 20
-20.74398864699937
 30
0.0
 10
9.615133669598775
 20
-20.44075195601536
 30
0.0
 10
9.661736960010144
 20
-19.887992109996876
 30
0.0
 10
9.679534763363796
 20
-19.38003813769576
 30
0.0
 10
9.67304030999725
 20
-18.91827338260095
 30
0.0
 10
9.64682769745126
 20
-18.50374616446775
 30
0.0
 10
9.605509889358474
 20
-18.13716740828976
 30
0.0
 10
9.55371664150668
 20
-17.818909624722817
 30
0.0
 10
9.49607243466142
 20
-17.549007242781204
 30
0.0
 10
9.437174493598947
 20
-17.327158291018893
 30
0.0
 10
9.381570971422855
 20
-17.152727418921152
 30
0.0
 10
9.333739377586294
 20
-17.024750245680362
 30
0.0
 10
9.298065316731742
 20
-16.94193901080335
 30
0.0
 10
9.279425981299957
 20
-16.90392208856582
 30
0.0
 10
9.21188199381234
 20
-16.794743601325685
 30
0.0
 10
9.048265823922641
 20
-16.48556809739503
 30
0.0
 10
8.935565144515182
 20
-16.202581059513644
 30
0.0
 10
8.870729884485552
 20
-15.94995284485234
 30
0.0
 10
8.85042814038428
 20
-15.731613200237598
 30
0.0
 10
8.871061270464892
 20
-15.55123440431612
 30
0.0
 10
8.928782395817054
 20
-15.412214373751446
 30
0.0
 10
9.019514380831149
 20
-15.3176615291082
 30
0.0
 10
9.512636911105192
 20
-15.022095258983057
 30
0.0
 10
10.238277801224688
 20
-14.537237517404304
 30
0.0
 10
10.700055251155518
 20
-14.194760019407354
 30
0.0
 10
10.822132316512835
 20
-14.1471184026364
 30
0.0
 10
10.972658995732496
 20
-14.14699169879149
 30
0.0
 10
11.147203230385752
 20
-14.196957149007604
 30
0.0
 10
11.341153559200547
 20
-14.299268536708169
 30
0.0
 10
11.549740323886454
 20
-14.455845038496742
 30
0.0
 10
11.768057524553852
 20
-14.668261383443078
 30
0.0
 10
11.991085247105458
 20
-14.937739357039408
 30
0.0
 10
12.066105065629039
 20
-15.041922681649572
 30
0.0
 10
12.094095147021333
 20
-15.073691622493003
 30
0.0
 10
12.156950876281286
 20
-15.138340631924974
 30
0.0
 10
12.256882008765784
 20
-15.23150600639511
 30
0.0
 10
12.396756574616795
 20
-15.349628767314092
 30
0.0
 10
12.57917901421405
 20
-15.488941287895752
 30
0.0
 10
12.80647681774072
 20
-15.645484760683704
 30
0.0
 10
13.080688252801302
 20
-15.815127463644888
 30
0.0
 10
13.403551221438113
 20
-15.993583757167867
 30
0.0
 10
13.776493301400114
 20
-16.176433752036893
 30
0.0
 10
14.200622987764055
 20
-16.359143566003038
 30
0.0
 10
14.676722190706762
 20
-16.537086109364598
 30
0.0
 10
15.20524000597142
 20
-16.705562318353795
 30
0.0
 10
15.500943103032778
 20
-16.784067551055404
 30
0.0
 10
16.20569369082791
 20
-16.205693690827907
 30
0.0
 10
16.78406755105542
 20
-15.500943103032757
 30
0.0
 10
16.705562318353824
 20
-15.205240005971449
 30
0.0
 10
16.537086109364612
 20
-14.67672219070675
 30
0.0
 10
16.35914356600304
 20
-14.20062298776401
 30
0.0
 10
16.176433752037934
 20
-13.776493301402475
 30
0.0
 10
15.993583757169075
 20
-13.40355122144072
 30
0.0
 10
15.815127463297607
 20
-13.080688252173182
 30
0.0
 10
15.645484760692746
 20
-12.806476817734538
 30
0.0
 10
15.488941287895631
 20
-12.579179014214143
 30
0.0
 10
15.349628767313963
 20
-12.396756574616886
 30
0.0
 10
15.231506006395131
 20
-12.256882008765626
 30
0.0
 10
15.138340631921976
 20
-12.156950876284673
 30
0.0
 10
15.073691609655766
 20
-12.094095143374037
 30
0.0
 10
15.04192266286091
 20
-12.066105051889751
 30
0.0
 10
14.937739357039423
 20
-11.991085247105433
 30
0.0
 10
14.668261383443047
 20
-11.768057524553859
 30
0.0
 10
14.455845081467102
 20
-11.549740275114772
 30
0.0
 10
14.299268479441828
 20
-11.34115361810075
 30
0.0
 10
14.196957148969837
 20
-11.147203230421074
 30
0.0
 10
14.146991698793846
 20
-10.972658995730505
 30
0.0
 10
14.147118402636236
 20
-10.822132316512967
 30
0.0
 10
14.19476001940692
 20
-10.700055251155861
 30
0.0
 10
14.537237517404447
 20
-10.23827780122471
 30
0.0
 10
15.02209525898298
 20
-9.512636911105064
 30
0.0
 10
15.31766152910805
 20
-9.01951438083168
 30
0.0
 10
15.412214373751386
 20
-8.928782395817253
 30
0.0
 10
15.551234404317059
 20
-8.87106127046195
 30
0.0
 10
15.73161320021942
 20
-8.850428140432685
 30
0.0
 10
15.949952812350531
 20
-8.87072995993288
 30
0.0
 10
16.202581088128756
 20
-8.935565086151628
 30
0.0
 10
16.485568097395035
 20
-9.04826582392267
 30
0.0
 10
16.794743601325703
 20
-9.211881993812316
 30
0.0
 10
16.903922108449375
 20
-9.279425993400618
 30
0.0
 10
16.941939019085606
 20
-9.298065327196044
 30
0.0
 10
17.02475024567838
 20
-9.333739377590362
 30
0.0
 10
17.152727418921287
 20
-9.38157097142277
 30
0.0
 10
17.327158291018858
 20
-9.437174493599102
 30
0.0
 10
17.54900724278116
 20
-9.496072434661563
 30
0.0
 10
17.818909624725066
 20
-9.553716641495958
 30
0.0
 10
18.137167409002966
 20
-9.605509889438949
 30
0.0
 10
18.50374616446487
 20
-9.646827697451139
 30
0.0
 10
18.91827338259837
 20
-9.673040309997191
 30
0.0
 10
19.3800381376958
 20
-9.679534763363774
 30
0.0
 10
19.88799210999688
 20
-9.661736960010122
 30
0.0
 10
20.440751956015323
 20
-9.61513366959876
 30
0.0
 10
20.743988646999377
 20
-9.574502371142385
 30
0.0
  0
ENDSEC
  0
EOF
